<?xml version="1.0" encoding="utf-8"?>
<!-- Generator: Adobe Illustrator 26.5.0, SVG Export Plug-In . SVG Version: 6.00 Build 0)  -->
<svg version="1.1" id="Capa_1" xmlns="http://www.w3.org/2000/svg" xmlns:xlink="http://www.w3.org/1999/xlink" x="0px" y="0px"
	 viewBox="0 0 600 600" style="enable-background:new 0 0 600 600;" xml:space="preserve">
<style type="text/css">
	.st0{fill:#E34731;}
</style>
<path class="st0" d="M83.7,32.3c7.8,0,14.6,5.4,16.3,13l4.6,20.4h462c21.2,0,38.2,21.2,32.2,42.5l-56.5,200.8
	c-4.1,14.4-17.3,24.4-32.2,24.4H165.4l15.3,66.9h338c9.2,0,16.7,7.5,16.7,16.7s-7.5,16.7-16.7,16.7H167.3c-7.8,0-14.5-5.4-16.3-13.1
	l-80.7-355H16.7C7.5,65.8,0,58.3,0,49c0-9.2,7.5-16.7,16.7-16.7H83.7z M112.2,99.2L157,300h353.1l56.5-200.8H112.2z M133.9,509.1
	c0-32.3,26.2-58.6,58.6-58.6s58.6,26.2,58.6,58.6s-26.2,58.6-58.6,58.6S133.9,541.5,133.9,509.1z M192.4,534.2
	c13.9,0,25.1-11.2,25.1-25.1c0-13.9-11.2-25.1-25.1-25.1s-25.1,11.2-25.1,25.1C167.3,523.1,178.5,534.2,192.4,534.2z M535.4,509.1
	c0,32.3-26.2,58.6-58.6,58.6s-58.6-26.2-58.6-58.6s26.2-58.6,58.6-58.6S535.4,476.8,535.4,509.1z M476.9,484.1
	c-13.9,0-25.1,11.2-25.1,25.1c0,13.9,11.2,25.1,25.1,25.1s25.1-11.2,25.1-25.1C502,495.2,490.8,484.1,476.9,484.1z"/>
</svg>
