<?xml version="1.0" encoding="utf-8"?>
<!-- Generator: Adobe Illustrator 26.5.0, SVG Export Plug-In . SVG Version: 6.00 Build 0)  -->
<svg version="1.1" id="Capa_1" xmlns="http://www.w3.org/2000/svg" xmlns:xlink="http://www.w3.org/1999/xlink" x="0px" y="0px"
	 viewBox="0 0 600 600" style="enable-background:new 0 0 600 600;" xml:space="preserve">
<style type="text/css">
	.st0{fill:#E34731;}
</style>
<path class="st0" d="M503.1,146.8L378.3,22C364.1,7.9,345.1,0,325.2,0H150c-41.4,0-75,33.6-75,75l0,450c0,41.4,33.6,75,75,75h300
	c41.4,0,75-33.6,75-75V199.8C525,179.9,517.1,160.9,503.1,146.8z M337.5,39.9c5.2,1.8,10.2,4.5,14.2,8.6l124.8,124.8
	c4.1,4,6.8,8.9,8.5,14.2H356.2c-10.3,0-18.8-8.4-18.8-18.8V39.9z M487.5,525c0,20.7-16.8,37.5-37.5,37.5H150
	c-20.7,0-37.5-16.8-37.5-37.5V75c0-20.7,16.8-37.5,37.5-37.5h150v131.2c0,31.1,25.2,56.2,56.2,56.2h131.2V525z M168.8,112.5h75
	c10.3,0,18.8-8.4,18.8-18.8S254.1,75,243.8,75h-75c-10.4,0-18.8,8.4-18.8,18.8S158.4,112.5,168.8,112.5z M262.5,168.8
	c0-10.3-8.4-18.8-18.8-18.8h-75c-10.4,0-18.8,8.4-18.8,18.8s8.4,18.8,18.8,18.8h75C254.1,187.5,262.5,179.1,262.5,168.8z
	 M311.7,338.6c7.9,1.1,16.6,3.5,24.9,6c10,3.1,20.4-2.5,23.4-12.4c3-9.9-2.5-20.4-12.4-23.4c-11.8-3.6-21-5.8-29.3-7
	c0.2-1.6,0.4-1.1,0.4-1.7v-18.8c0-10.4-8.4-18.8-18.7-18.8s-18.8,8.4-18.8,18.8V300c0,0.4,0.2,0.6,0.2,1
	c-30,3.8-50.7,19.3-55.4,43.7c-9.1,46.8,38.7,59.3,61.7,65.4l7.6,1.9c37.8,9.6,43.6,14.4,41.7,23.8c-2.2,11.1-23.2,16.8-49,13.1
	c-10.1-1.3-22.2-5.2-32.9-8.7l-5.8-1.9c-9.9-3-20.4,2.4-23.5,12.2c-3.1,9.9,2.4,20.4,12.2,23.5l5.6,1.7c11.8,3.8,25.1,7.9,37.9,9.8
	c0,0.6-0.4,1.2-0.4,1.8v18.8c0,10.4,8.4,18.8,18.8,18.8c10.4,0,18.7-8.4,18.7-18.8v-18.8c0-0.6-0.3-1.1-0.3-1.7
	c29.8-3.9,50.8-18.7,55.5-42.9c9.2-47.4-38-59.4-69.3-67.3l-7.3-1.9c-36.8-9.6-35.6-15.6-34.4-21.9C265,340.7,286.1,335,311.7,338.6
	z"/>
</svg>
