<?xml version="1.0" encoding="utf-8"?>
<!-- Generator: Adobe Illustrator 26.5.0, SVG Export Plug-In . SVG Version: 6.00 Build 0)  -->
<svg version="1.1" id="Capa_1" xmlns="http://www.w3.org/2000/svg" xmlns:xlink="http://www.w3.org/1999/xlink" x="0px" y="0px"
	 viewBox="0 0 600 600" style="enable-background:new 0 0 600 600;" xml:space="preserve">
<style type="text/css">
	.st0{fill:#E34731;}
</style>
<path class="st0" d="M85.7,526.5V31c0-17.1,13.9-31,31.1-31c7.6,0,14.9,2.8,20.6,7.8l367,326.2c6.3,5.6,9.9,13.7,9.9,22.1
	c0,16.3-13.3,29.6-29.6,29.6H302l81.8,184.2c4.8,10.8,0,23.4-10.8,28.3c-10.8,4.8-24.6,0-28.3-10.8L263,403.5L137.4,547.1
	c-5.6,6.4-13.7,10-22.2,10C98.9,557.1,85.7,543.9,85.7,526.5L85.7,526.5z M128.6,53.6v439.3l115.7-135c8.2-9.5,20.1-15,32.5-15H450
	L128.6,53.6z"/>
</svg>
