<?xml version="1.0" encoding="utf-8"?>
<!-- Generator: Adobe Illustrator 26.5.0, SVG Export Plug-In . SVG Version: 6.00 Build 0)  -->
<svg version="1.1" id="Capa_1" xmlns="http://www.w3.org/2000/svg" xmlns:xlink="http://www.w3.org/1999/xlink" x="0px" y="0px"
	 viewBox="0 0 600 600" style="enable-background:new 0 0 600 600;" xml:space="preserve">
<style type="text/css">
	.st0{fill:#E34731;}
</style>
<path class="st0" d="M-0.5,149.7c0-41.5,33.6-75.1,75.1-75.1h450.8c41.4,0,75.1,33.6,75.1,75.1v300.5c0,41.4-33.7,75.1-75.1,75.1
	H74.6c-41.5,0-75.1-33.7-75.1-75.1V149.7z M37,149.7v46.8l229.6,168.3c19.8,14.6,46.8,14.6,66.7,0L563,196.6v-46.8
	c0-20.8-16.8-37.6-37.6-37.6H73.6C53.9,112.2,36,129,36,149.7H37z M37,243.2v207.1c0,20.8,16.8,37.6,37.6,37.6h450.8
	c20.8,0,37.6-16.8,37.6-37.6V243.2l-207.4,152c-33.1,24.3-77.9,24.3-111,0L37,243.2z"/>
</svg>
