<?xml version="1.0" encoding="utf-8"?>
<!-- Generator: Adobe Illustrator 26.5.0, SVG Export Plug-In . SVG Version: 6.00 Build 0)  -->
<svg version="1.1" id="Capa_1" xmlns="http://www.w3.org/2000/svg" xmlns:xlink="http://www.w3.org/1999/xlink" x="0px" y="0px"
	 viewBox="0 0 600 600" style="enable-background:new 0 0 600 600;" xml:space="preserve">
<style type="text/css">
	.st0{fill:#E34731;}
</style>
<path class="st0" d="M443.9,225H360c-8.3,0-15,6.7-15,15s6.7,15,15,15h83.9c3.4,0,6.1,2.7,6.1,6.1v42.2c0,3.4-2.7,6.1-6.1,6.1H435
	c-8.3,0-15,6.7-15,15v42.2c0,15.5-10.9,27.2-25.3,27.2H390c-8.3,0-15,6.7-15,15c0,22.8-18.5,41.3-41.2,41.3L225,450
	c-2.6,0-5.2,0.7-7.4,2l-105,60c-7.2,4.1-9.7,13.3-5.6,20.4c2.8,4.9,7.8,7.6,13,7.6c2.5,0,5.1-0.6,7.4-2L229,480h104.7
	c34.4,0,63.2-24.5,69.8-57c26.7-4.2,46.4-27.5,46.4-56.5v-27.7c17-2.9,30-17.7,30-35.6v-42.2C480,241.2,463.8,225,443.9,225z
	 M118.1,310.1c0-41,20.4-77.7,54.6-98.2c7.1-4.3,9.4-13.5,5.1-20.6c-4.3-7.1-13.5-10.2-20.5-5.1c-40.8,24.5-66.1,67-68.9,115
	L7.6,347c-7.2,4.1-9.8,13.2-5.7,20.4c2.8,4.9,7.8,7.6,13.1,7.6c2.5,0,5-0.6,7.4-1.9l95.7-54.2V310.1z M262.5,330
	c28.9,0,52.5-23.5,52.5-52.5v-73.1c0-8.3-6.7-15-15-15s-15,6.7-15,15v73.1c0,12.4-10.1,22.5-22.5,22.5S240,289.9,240,277.5V170.6
	c0-4.5,2.3-8.6,6.1-11c25.8-16.1,55.7-24.6,86.1-24.6l57.7,0c0,0,0,0,0,0c0,0,0,0,0,0c0,0,0,0,0,0c2.5,0,4.8-0.8,6.9-1.9
	c0.2-0.1,0.5-0.1,0.8-0.2l75-45c7.1-4.3,9.4-13.5,5.1-20.6c-4.3-7.1-13.5-9.4-20.6-5.1L385.9,105h-53.6c-36.1,0-71.4,10.1-102,29.2
	c-12.7,7.9-20.3,21.5-20.3,36.4v106.9C210,306.5,233.5,330,262.5,330z M597.6,232c-4.3-7-14.4-9.1-20.6-4.7L517.2,265
	c-7,4.4-9.1,13.7-4.7,20.7c2.8,4.5,7.7,7,12.7,7c2.7,0,5.5-0.7,8-2.3l59.8-37.7C600,248.2,602.1,238.2,597.6,232z"/>
</svg>
