<?xml version="1.0" encoding="utf-8"?>
<!-- Generator: Adobe Illustrator 26.5.0, SVG Export Plug-In . SVG Version: 6.00 Build 0)  -->
<svg version="1.1" id="Capa_1" xmlns="http://www.w3.org/2000/svg" xmlns:xlink="http://www.w3.org/1999/xlink" x="0px" y="0px"
	 viewBox="0 0 600 600" style="enable-background:new 0 0 600 600;" xml:space="preserve">
<style type="text/css">
	.st0{fill:#E34731;}
</style>
<path class="st0" d="M0,112.5c0-41.4,33.6-75,75-75h450c41.4,0,75,33.6,75,75v375c0,41.4-33.6,75-75,75H75c-41.4,0-75-33.6-75-75
	V112.5z M187.5,150h375v-37.5c0-20.7-16.8-37.5-37.5-37.5H187.5V150z M150,75H75c-20.7,0-37.5,16.8-37.5,37.5V150H150V75z
	 M37.5,187.5v300c0,20.7,16.8,37.5,37.5,37.5h450c20.7,0,37.5-16.8,37.5-37.5v-300H37.5z"/>
</svg>
