<?xml version="1.0" encoding="utf-8"?>
<!-- Generator: Adobe Illustrator 26.5.0, SVG Export Plug-In . SVG Version: 6.00 Build 0)  -->
<svg version="1.1" id="Capa_1" xmlns="http://www.w3.org/2000/svg" xmlns:xlink="http://www.w3.org/1999/xlink" x="0px" y="0px"
	 viewBox="0 0 600 600" style="enable-background:new 0 0 600 600;" xml:space="preserve">
<style type="text/css">
	.st0{fill:#E34731;}
</style>
<path class="st0" d="M299.9,359.9c53.7,0,96.5-43.6,96.5-97.4s-43.6-97.4-96.5-97.4c-53.7,0-96.5,43.6-96.5,97.4
	C202.5,316.3,246.2,359.9,299.9,359.9z M299.9,195.1c37.2,0,67.4,30.2,67.4,67.4S337,330,299.9,330s-67.4-30.2-67.4-67.4
	S262.7,195.1,299.9,195.1z M346.7,389.9h-93.4c-73.5,0-133,55.9-133,124.8c0,13.9,11.9,25,26.6,25h306.3c14.7,0,26.6-11.1,26.6-25
	C479.8,445.8,420.2,389.9,346.7,389.9z M150.4,509.7c2.8-50,47.9-89.9,102.1-89.9h94.2c55,0,100.1,39.9,102.1,89.9H150.4z
	 M479.8,210.1c41.4,0,74.9-33.5,74.9-74.9s-33.5-74.9-74.9-74.9c-41.4,0-74.9,33.5-74.9,74.9S438.4,210.1,479.8,210.1z M479.8,90.3
	c24.8,0,44.9,20.2,44.9,44.9s-20.1,44.9-44.9,44.9s-44.9-20.2-44.9-44.9S454.9,90.3,479.8,90.3z M120.2,210.1
	c41.4,0,74.9-33.5,74.9-74.9s-33.5-74.9-74.9-74.9c-41.4,0-74.9,33.5-74.9,74.9S78.9,210.1,120.2,210.1z M120.2,90.3
	c24.8,0,44.9,20.2,44.9,44.9s-20.1,44.9-44.9,44.9S75.3,160,75.3,135.2S95.4,90.3,120.2,90.3z M525.7,240.1h-60.9
	c-10.4,0-20.7,2.3-30.4,7c-7.5,3.6-10.7,12.5-7.1,20s12.5,10.7,20,7.1c5.7-2.7,11.6-4.1,17.6-4.1h60.9c23.4,0,43.9,21.3,43.9,47.5
	V330c0,8.3,6.7,15,15,15c8.3,0,15-6.7,15-15v-12.5C599.6,274.8,566.5,240.1,525.7,240.1z M152.8,274.1c7.4,3.6,16.4,0.4,20-7.1
	c3.6-7.5,0.4-16.4-7.1-20c-9.8-4.6-20-6.9-30.4-6.9H74.3c-40.7,0-73.9,34.7-73.9,77.4V330c0,8.3,6.7,15,15,15s15-6.7,15-15v-12.5
	c0-26.2,19.7-47.5,43.9-47.5h60.9C141.2,270,147.1,271.4,152.8,274.1z"/>
</svg>
