<?xml version="1.0" encoding="utf-8"?>
<!-- Generator: Adobe Illustrator 26.5.0, SVG Export Plug-In . SVG Version: 6.00 Build 0)  -->
<svg version="1.1" id="Capa_1" xmlns="http://www.w3.org/2000/svg" xmlns:xlink="http://www.w3.org/1999/xlink" x="0px" y="0px"
	 viewBox="0 0 600 600" style="enable-background:new 0 0 600 600;" xml:space="preserve">
<style type="text/css">
	.st0{fill:#E34731;}
</style>
<path class="st0" d="M406.9,193.1c7.4,7.3,7.4,19.2,0,26.5L219.5,406.9c-7.3,7.4-19.2,7.4-26.5,0c-7.4-7.3-7.4-19.2,0-26.5
	l187.4-187.4C387.7,185.7,399.7,185.7,406.9,193.1z M196.9,224c0-14.5,12.5-28.1,28.1-28.1s28.1,13.6,28.1,28.1
	c0,16.6-12.5,28.1-28.1,28.1S196.9,240.6,196.9,224z M346.8,373.9c0-14.5,12.5-28.1,28.1-28.1c15.6,0,28.1,13.6,28.1,28.1
	c0,16.6-12.5,29.2-28.1,29.2C359.4,403.1,346.8,390.5,346.8,373.9z M402,53.6c38.6-7,80.1,4.5,110,34.4c30,29.9,41.3,71.3,34.4,110
	c32.2,21.3,53.4,59.7,53.4,100.9c0,43.3-21.2,80.7-53.4,103.1c6.9,38.6-4.5,80.1-34.4,110c-29.9,30-71.3,41.3-110,34.4
	c-22.4,32.2-59.7,53.4-102,53.4s-80.7-21.2-102-53.4c-38.6,6.9-80.1-4.5-110-34.4c-29.9-29.9-41.4-71.3-34.4-110
	C21.4,379.6,0.2,342.3,0.2,298.9c0-41.2,21.2-79.6,53.4-100.9c-7-38.6,4.5-80.1,34.4-110c29.9-29.9,71.3-41.4,110-34.4
	c21.3-32.3,59.7-53.4,100.9-53.4C342.3,0.2,379.6,21.4,402,53.6L402,53.6z M216.1,97.5l-14.9-4.5c-29.7-9.1-63.4-1.9-86.8,21.6
	c-23.5,23.4-30.7,57-21.6,86.8l4.5,14.9l-13.7,7.3c-27.5,14.5-46.1,43.4-46.1,75.5c0,34.2,18.7,62.1,46.1,77.6l13.7,7.3l-4.5,14.9
	c-9.1,29.7-1.9,63.2,21.6,86.8c23.4,23.4,57,30.7,86.8,21.5l14.9-4.6l7.3,13.7c14.5,27.5,43.4,46.1,76.6,46.1s61-18.6,76.6-46.1
	l7.3-13.7l14.9,4.6c29.7,9.1,63.2,1.9,86.8-21.5c23.4-23.5,30.7-57,21.5-86.8l-4.6-14.9l13.7-7.3c27.5-15.6,46.1-43.4,46.1-77.6
	c0-32.1-18.6-61-46.1-75.5l-13.7-7.3l4.6-14.9c9.1-29.7,1.9-63.4-21.5-86.8c-23.4-23.5-57-30.7-86.8-21.5l-14.9,4.5l-7.3-13.7
	C361,56.3,333.1,36.6,300,36.6s-62.1,19.7-76.6,47.2L216.1,97.5z"/>
</svg>
