<?xml version="1.0" encoding="utf-8"?>
<!-- Generator: Adobe Illustrator 26.5.0, SVG Export Plug-In . SVG Version: 6.00 Build 0)  -->
<svg version="1.1" id="Capa_1" xmlns="http://www.w3.org/2000/svg" xmlns:xlink="http://www.w3.org/1999/xlink" x="0px" y="0px"
	 viewBox="0 0 600 600" style="enable-background:new 0 0 600 600;" xml:space="preserve">
<style type="text/css">
	.st0{fill:#E34731;}
</style>
<path class="st0" d="M281.2,131.2c0-10.3,8.4-18.8,18.8-18.8s18.8,8.4,18.8,18.8v158.7l104.2,69.5c8.6,5.7,10.9,17.3,5.2,26
	c-5.7,8.6-17.3,10.9-26,5.2l-112.5-75c-5.2-3.5-9.4-9.4-9.4-15.6L281.2,131.2z M300,0c165.7,0,300,134.3,300,300S465.7,600,300,600
	S0,465.7,0,300S134.3,0,300,0z M37.5,300C37.5,445,155,562.5,300,562.5S562.5,445,562.5,300S445,37.5,300,37.5S37.5,155,37.5,300z"
	/>
</svg>
