<?xml version="1.0" encoding="utf-8"?>
<!-- Generator: Adobe Illustrator 26.5.0, SVG Export Plug-In . SVG Version: 6.00 Build 0)  -->
<svg version="1.1" id="Capa_1" xmlns="http://www.w3.org/2000/svg" xmlns:xlink="http://www.w3.org/1999/xlink" x="0px" y="0px"
	 viewBox="0 0 600 600" style="enable-background:new 0 0 600 600;" xml:space="preserve">
<style type="text/css">
	.st0{fill:#E34731;}
</style>
<path class="st0" d="M525,0H375c-20.7,0-37.5,16.8-37.5,37.5v28.1c0,20.7,16.8,37.5,37.5,37.5h18.8c10.4,0,18.8,8.4,18.8,18.8
	c0,10.4-8.4,18.8-18.8,18.8H375c-20.7,0-37.5,16.8-37.5,37.5v28.1c0,20.7,16.8,37.5,37.5,37.5h37.5c0,31.1,25.2,56.2,56.2,56.2
	s56.2-25.2,56.2-56.2h37.5c20.7,0,37.5-16.8,37.5-37.5V75C600,33.6,566.4,0,525,0z M562.5,206.2h-56.2c-10.3,0-18.8,8.4-18.8,18.8
	v18.8c0,10.3-8.4,18.8-18.8,18.8s-18.8-8.4-18.8-18.8V225c0-10.4-8.4-18.8-18.8-18.8H375v-28.1h18.8c31.1,0,56.2-25.2,56.2-56.2
	s-25.2-56.2-56.2-56.2H375V37.5h150c20.7,0,37.5,16.8,37.5,37.5V206.2z M487.5,318.8h-75c-10.4,0-18.8,8.4-18.8,18.8V375
	c0,10.4-8.4,18.8-18.8,18.8s-18.8-8.4-18.8-18.8v-37.5c0-10.4-8.4-18.8-18.8-18.8h-56.2V112.5c0-20.7-16.8-37.5-37.5-37.5H75
	c-41.4,0-75,33.6-75,75v187.5V525c0,41.4,33.6,75,75,75h187.5H450c41.4,0,75-33.6,75-75V356.2C525,335.5,508.2,318.8,487.5,318.8z
	 M37.5,150c0-20.7,16.8-37.5,37.5-37.5h168.8v206.2h-37.5V300c0-31.1-25.2-56.2-56.2-56.2S93.8,268.9,93.8,300v18.8H37.5V150z
	 M243.8,562.5H75c-20.7,0-37.5-16.8-37.5-37.5V356.2h75c10.4,0,18.8-8.4,18.8-18.8V300c0-10.4,8.4-18.8,18.8-18.8
	s18.8,8.4,18.8,18.8v37.5c0,10.4,8.4,18.8,18.8,18.8h56.2v37.5H225c-31.1,0-56.2,25.2-56.2,56.2s25.2,56.2,56.2,56.2h18.8V562.5z
	 M487.5,525c0,20.7-16.8,37.5-37.5,37.5H281.2v-75c0-10.4-8.4-18.8-18.8-18.8H225c-10.4,0-18.8-8.4-18.8-18.8
	c0-10.4,8.4-18.8,18.8-18.8h37.5c10.4,0,18.8-8.4,18.8-18.8v-56.2h37.5V375c0,31.1,25.2,56.2,56.2,56.2s56.2-25.2,56.2-56.2v-18.8
	h56.2V525z"/>
</svg>
