<?xml version="1.0" encoding="utf-8"?>
<!-- Generator: Adobe Illustrator 26.5.0, SVG Export Plug-In . SVG Version: 6.00 Build 0)  -->
<svg version="1.1" id="Capa_1" xmlns="http://www.w3.org/2000/svg" xmlns:xlink="http://www.w3.org/1999/xlink" x="0px" y="0px"
	 viewBox="0 0 600 600" style="enable-background:new 0 0 600 600;" xml:space="preserve">
<style type="text/css">
	.st0{fill:#E34731;}
</style>
<path class="st0" d="M567.9,388.5L567.9,388.5l-119.3-51.2c-21.7-9-47.1-2.8-61.8,15.3l-38.8,47.4
	c-61.8-33.6-113.2-85.1-146.8-146.8l47.5-40c18.4-15.1,24.4-40,15-61.9L212.5,32.1C202.3,8.5,176.6-4.4,151.8,1.4L41.2,27
	C17,33.6,0,54.9,0,79.7c0,287.4,233.9,521.3,521.4,521.3c24.9,0,46.2-16.9,51.8-41.2l25.5-110.7
	C604.3,424.2,591.4,398.7,567.9,388.5z M536.6,551.5c-1.6,7-8.1,12.1-15.2,12.1c-266.8,0-483.9-217-483.9-483.8
	c0-7.3,5-13.5,12.1-15.1L160.3,39c1.2-0.3,2.3-0.4,3.5-0.4c6.1,0,11.8,3.6,14.4,9.4l51.1,119.2c2.7,6.4,1,13.8-4.4,18.3l-59.2,48.5
	c-6.7,5.5-8.8,15-4.9,22.8c39.1,79.5,104.4,144.7,183.9,183.9c7.8,3.9,17.3,1.8,22.8-4.9l48.5-59.2c4.3-5.3,11.9-7.1,18.2-4.5
	L553,423c6.9,3,10.7,10.5,9,17.8L536.6,551.5z M393.7,132.3h75v75c0,10.3,8.4,18.7,18.8,18.7c10.3,0,18.7-8.4,18.7-18.7v-75h75
	c10.3,0,18.8-8.4,18.8-18.7s-8.4-18.7-18.8-18.7h-75v-75c0-10.4-8.4-18.7-18.7-18.7c-10.3,0-18.8,8.4-18.8,18.7v75h-75
	c-10.3,0-18.7,8.4-18.7,18.7S383.4,132.3,393.7,132.3z"/>
</svg>
