<?xml version="1.0" encoding="utf-8"?>
<!-- Generator: Adobe Illustrator 25.2.3, SVG Export Plug-In . SVG Version: 6.00 Build 0)  -->
<svg version="1.1" id="Capa_1" xmlns="http://www.w3.org/2000/svg" xmlns:xlink="http://www.w3.org/1999/xlink" x="0px" y="0px"
	 viewBox="0 0 576 512" style="enable-background:new 0 0 576 512;" xml:space="preserve">
<style type="text/css">
	.st0{fill:#D6382D;}
</style>
<path class="st0" d="M208,144V80c0-26.51,21.5-48,48-48h64c26.5,0,48,21.49,48,48v64c0,26.5-21.5,48-48,48h-16v48h160
	c26.5,0,48,21.5,48,48v32h16c26.5,0,48,21.5,48,48v64c0,26.5-21.5,48-48,48h-64c-26.5,0-48-21.5-48-48v-64c0-26.5,21.5-48,48-48h16
	v-32c0-8.8-7.2-16-16-16H304v48h16c26.5,0,48,21.5,48,48v64c0,26.5-21.5,48-48,48h-64c-26.5,0-48-21.5-48-48v-64
	c0-26.5,21.5-48,48-48h16v-48H112c-8.8,0-16,7.2-16,16v32h16c26.5,0,48,21.5,48,48v64c0,26.5-21.5,48-48,48H48
	c-26.51,0-48-21.5-48-48v-64c0-26.5,21.49-48,48-48h16v-32c0-26.5,21.49-48,48-48h160v-48h-16C229.5,192,208,170.5,208,144z M320,64
	h-64c-8.8,0-16,7.16-16,16v64c0,8.8,7.2,16,16,16h64c8.8,0,16-7.2,16-16V80C336,71.16,328.8,64,320,64z M32,368v64
	c0,8.8,7.16,16,16,16h64c8.8,0,16-7.2,16-16v-64c0-8.8-7.2-16-16-16H48C39.16,352,32,359.2,32,368z M240,368v64c0,8.8,7.2,16,16,16
	h64c8.8,0,16-7.2,16-16v-64c0-8.8-7.2-16-16-16h-64C247.2,352,240,359.2,240,368z M448,368v64c0,8.8,7.2,16,16,16h64
	c8.8,0,16-7.2,16-16v-64c0-8.8-7.2-16-16-16h-64C455.2,352,448,359.2,448,368z"/>
</svg>
