<?xml version="1.0" encoding="utf-8"?>
<!-- Generator: Adobe Illustrator 25.2.3, SVG Export Plug-In . SVG Version: 6.00 Build 0)  -->
<svg version="1.1" id="Capa_1" xmlns="http://www.w3.org/2000/svg" xmlns:xlink="http://www.w3.org/1999/xlink" x="0px" y="0px"
	 viewBox="0 0 512 512" style="enable-background:new 0 0 512 512;" xml:space="preserve">
<style type="text/css">
	.st0{fill:#D6382D;}
</style>
<path class="st0" d="M507.8,37.24c6,6.54,5.5,16.65-1,22.6l-176,159.96c-6.4,5.8-16.1,5.6-22.1-0.5L190.4,100.1L25.41,220.9
	c-7.15,5.2-17.15,3.7-22.35-3.5c-5.2-7.1-3.62-17.1,3.53-22.3L182.6,67.06c5.5-4.63,15.1-3.94,20.7,1.63L320.5,185.9L485.2,36.16
	C491.8,30.22,501.9,30.7,507.8,37.24L507.8,37.24z M112,368v64c0,26.5-21.49,48-48,48s-48-21.5-48-48v-64c0-26.5,21.49-48.9,48-48.9
	S112,341.5,112,368z M80,432v-64c0-8.8-7.16-16-16-16s-16,7.2-16,16v64c0,8.8,7.16,16,16,16S80,440.8,80,432z M144,271.1
	c0-25.6,21.5-48,48-48s48,22.4,48,48V432c0,26.5-21.5,48-48,48s-48-21.5-48-48V271.1z M192,255.1c-8.8,0-16,8.1-16,16V432
	c0,8.8,7.2,16,16,16s16-7.2,16-16V271.1C208,263.2,200.8,255.1,192,255.1z M368,336v96c0,26.5-21.5,48-48,48s-48-21.5-48-48v-96
	c0-26.5,21.5-48.9,48-48.9S368,309.5,368,336z M336,432v-96c0-8.8-7.2-16.9-16-16.9s-16,8.1-16,16.9v96c0,8.8,7.2,16,16,16
	S336,440.8,336,432z M400,271.1c0-25.6,21.5-48,48-48s48,22.4,48,48V432c0,26.5-21.5,48-48,48s-48-21.5-48-48V271.1z M448,255.1
	c-8.8,0-16,8.1-16,16V432c0,8.8,7.2,16,16,16s16-7.2,16-16V271.1C464,263.2,456.8,255.1,448,255.1z"/>
</svg>
