<?xml version="1.0" encoding="utf-8"?>
<!-- Generator: Adobe Illustrator 25.2.3, SVG Export Plug-In . SVG Version: 6.00 Build 0)  -->
<svg version="1.1" id="Capa_1" xmlns="http://www.w3.org/2000/svg" xmlns:xlink="http://www.w3.org/1999/xlink" x="0px" y="0px"
	 viewBox="0 0 512 512" style="enable-background:new 0 0 512 512;" xml:space="preserve">
<style type="text/css">
	.st0{fill:#D6382D;}
</style>
<path class="st0" d="M447.1,0h-384c-35.25,0-64,28.75-64,63.1v287.1c0,35.25,28.75,63.1,64,63.1h96v83.1
	c0,9.84,11.03,15.55,19.12,9.7l124.9-93.7h144c35.25,0,64-28.75,64-63.1V63.1C511.1,28.75,483.2,0,447.1,0z M480,352
	c0,17.6-14.4,32-32,32H303.9c-6.93,0-13.67,2.25-19.21,6.41L192,460v-60c0-8.84-7.16-16-16-16H64c-17.6,0-32-14.4-32-32V64
	c0-17.6,14.4-32,32-32h384c17.6,0,32,14.4,32,32V352z M272,240H144c-8.8,0-16,7.19-16,15.99c-0.9,8.81,7.2,16.01,16,16.01h128
	c8.8,0,15.1-7.21,15.1-16.01C287.1,247.2,280.8,240,272,240z M368,144H144c-8.8,0-16,7.19-16,15.99c-0.9,8.81,7.2,16.01,16,16.01
	h224c8.8,0,15.1-7.21,15.1-16.01C383.1,151.2,376.8,144,368,144z"/>
</svg>
