<?xml version="1.0" encoding="utf-8"?>
<!-- Generator: Adobe Illustrator 25.2.3, SVG Export Plug-In . SVG Version: 6.00 Build 0)  -->
<svg version="1.1" id="Capa_1" xmlns="http://www.w3.org/2000/svg" xmlns:xlink="http://www.w3.org/1999/xlink" x="0px" y="0px"
	 viewBox="0 0 512 512" style="enable-background:new 0 0 512 512;" xml:space="preserve">
<style type="text/css">
	.st0{fill:#D6382D;}
</style>
<path class="st0" d="M76.29,154.2c-2.88,3.5-7.07,5.6-11.57,4.9c-4.49,1.1-8.86-0.6-12.03-3.8l-48-48c-6.25-6.2-6.25-16.36,0-22.61
	c6.24-6.25,16.37-6.25,22.62,0l35.61,35.61l68.78-82.54c5.7-6.79,15.8-7.71,22.5-2.05c6.8,5.66,7.7,15.74,2.1,22.53L76.29,154.2z
	 M76.29,314.2c-2.88,3.5-7.07,5.6-11.57,4.9c-4.49,1.1-8.86-0.6-12.03-3.8l-48-48c-6.25-6.2-6.25-16.4,0-22.6
	c6.24-6.3,16.37-6.3,22.62,0l35.61,35.6l68.78-82.5c5.7-7.7,15.8-7.7,22.5-2.1c6.8,5.7,7.7,15.8,2.1,22.5L76.29,314.2z M191.1,96
	c0-8.84,8.1-16,16-16H496c8.8,0,16,7.16,16,16c0,8.8-7.2,16-16,16H207.1C199.2,112,191.1,104.8,191.1,96z M191.1,256
	c0-8.8,8.1-16,16-16H496c8.8,0,16,7.2,16,16c0,8.8-7.2,16-16,16H207.1C199.2,272,191.1,264.8,191.1,256z M159.1,416
	c0-8.8,8.1-16,16-16H496c8.8,0,16,7.2,16,16s-7.2,16-16,16H175.1C167.2,432,159.1,424.8,159.1,416z M63.1,448
	c-16.77,0-32-14.3-32-32s15.23-32,32-32c18.57,0,32,14.3,32,32S81.67,448,63.1,448z"/>
</svg>
