<?xml version="1.0" encoding="utf-8"?>
<!-- Generator: Adobe Illustrator 25.2.3, SVG Export Plug-In . SVG Version: 6.00 Build 0)  -->
<svg version="1.1" id="Capa_1" xmlns="http://www.w3.org/2000/svg" xmlns:xlink="http://www.w3.org/1999/xlink" x="0px" y="0px"
	 viewBox="0 0 576 512" style="enable-background:new 0 0 576 512;" xml:space="preserve">
<style type="text/css">
	.st0{fill:#D6382D;}
</style>
<path class="st0" d="M480,288H352c-8.84,0-16,7.16-16,16s7.2,16,16,16h128c8.84,0,16-7.16,16-16S488.8,288,480,288z M192,256
	c35.35,0,64-28.65,64-64s-28.7-64-64-64s-64,28.7-64,64S156.7,256,192,256z M192,160c17.64,0,32,14.36,32,32s-14.4,32-32,32
	s-32-14.4-32-32S174.4,160,192,160z M224,288h-64c-44.18,0-80,35.82-80,80c0,8.8,7.16,16,16,16s16-7.16,16-16c0-26.5,21.5-48,48-48
	h64c26.51,0,48,21.49,48,48c0,8.84,7.16,16,16,16s16-7.16,16-16C304,323.8,268.2,288,224,288z M512,32H64C28.65,32,0,60.65,0,96v320
	c0,35.35,28.65,64,64,64h448c35.35,0,64-28.65,64-64V96C576,60.65,547.3,32,512,32z M544,416c0,17.64-14.36,32-32,32H64
	c-17.64,0-32-14.36-32-32V96c0-17.64,14.36-32,32-32h448c17.64,0,32,14.36,32,32V416z M480,224H352c-8.84,0-16,7.16-16,16
	s7.2,16,16,16h128c8.84,0,16-7.16,16-16S488.8,224,480,224z M480,160H352c-8.84,0-16,7.16-16,16s7.2,16,16,16h128
	c8.84,0,16-7.16,16-16S488.8,160,480,160z"/>
</svg>
