<?xml version="1.0" encoding="utf-8"?>
<!-- Generator: Adobe Illustrator 25.2.3, SVG Export Plug-In . SVG Version: 6.00 Build 0)  -->
<svg version="1.1" id="Capa_1" xmlns="http://www.w3.org/2000/svg" xmlns:xlink="http://www.w3.org/1999/xlink" x="0px" y="0px"
	 viewBox="0 0 429.63 110.82" style="enable-background:new 0 0 429.63 110.82;" xml:space="preserve">
<style type="text/css">
	.st0{fill:#E34731;}
</style>
<path class="st0" d="M29.95,2.66h29.31l27.1,37.23h-28.3L29.95,2.66z"/>
<path class="st0" d="M30.14,39.89h28.3l0.18,0.2l-6.8,10.64L29.59,87.67H0L30.14,39.89z"/>
<path class="st0" d="M162.81,87.67h-22.05l-16.54-27.48l-5.15,6.7v20.78h-18.93V0h18.93v52.31l20.31-27.88h21.77l-21.22,27.29
	L162.81,87.67z"/>
<path class="st0" d="M191.85,15.37h-20.03V0h20.03V15.37z M191.29,87.67h-18.93V24.43h18.93V87.67z"/>
<path class="st0" d="M270.68,55.16c0,5.22-0.74,9.95-2.21,14.28c-1.47,4.24-3.4,7.78-5.88,10.54c-2.48,2.96-5.33,5.12-8.54,6.6
	c-3.22,1.48-6.62,2.27-10.2,2.27c-3.4,0-6.25-0.39-8.54-1.18c-2.39-0.79-4.78-1.87-7.17-3.25v26.4h-18.93V24.43h18.93v6.6
	c2.94-2.46,5.88-4.53,8.91-6.01c3.03-1.58,6.52-2.27,10.47-2.27c7.35,0,13.05,2.86,17.09,8.67
	C268.66,37.14,270.68,45.02,270.68,55.16z M251.2,55.56c0-6.11-1.01-10.64-2.94-13.4c-1.93-2.76-5.05-4.14-9.28-4.14
	c-1.75,0-3.58,0.3-5.51,0.89c-1.93,0.59-3.68,1.38-5.42,2.46v31.82c1.29,0.49,2.57,0.89,4.04,0.99c1.47,0.2,2.85,0.2,4.23,0.2
	c4.96,0,8.73-1.58,11.21-4.73C250.01,66.59,251.2,61.86,251.2,55.56z"/>
<path class="st0" d="M342.44,59.79h-43.27c0.27,4.93,2.02,8.77,5.24,11.33c3.22,2.66,7.99,3.94,14.33,3.94
	c3.95,0,7.9-0.79,11.58-2.27c3.67-1.48,6.71-3.15,8.91-4.93h2.11v16.25c-4.32,1.87-8.27,3.15-12.04,4.04
	c-3.77,0.79-7.99,1.28-12.59,1.28c-11.85,0-20.95-2.86-27.2-8.57c-6.34-5.71-9.46-13.79-9.46-24.43c0-10.44,2.94-18.72,8.91-24.82
	c5.97-6.11,14.15-9.16,24.53-9.16c9.56,0,16.81,2.56,21.68,7.78c4.87,5.22,7.26,12.71,7.26,22.46V59.79z M323.6,47.87
	c-0.09-4.24-1.1-7.39-2.94-9.55c-1.84-2.17-4.78-3.25-8.64-3.25c-3.67,0-6.61,0.99-9,3.05c-2.39,2.07-3.67,5.32-3.95,9.75H323.6z"/>
<path class="st0" d="M398.58,43.74h-1.65c-0.83-0.3-2.11-0.49-3.86-0.69c-1.75-0.2-3.31-0.2-4.41-0.2c-2.67,0-5.05,0.2-7.17,0.59
	c-2.02,0.39-4.32,0.99-6.61,1.87v42.36h-18.93V24.43h18.93v9.26c4.13-3.84,7.81-6.4,10.84-7.58c3.03-1.28,5.88-1.87,8.45-1.87
	c0.64,0,1.38,0,2.3,0.1c0.83,0,1.56,0.1,2.2,0.2v19.21H398.58z"/>
<path class="st0" d="M429.63,87.67h-19.66V65.51h19.66V87.67z"/>
</svg>
