<?xml version="1.0" encoding="utf-8"?>
<!-- Generator: Adobe Illustrator 25.2.3, SVG Export Plug-In . SVG Version: 6.00 Build 0)  -->
<svg version="1.1" id="Capa_1" xmlns="http://www.w3.org/2000/svg" xmlns:xlink="http://www.w3.org/1999/xlink" x="0px" y="0px"
	 viewBox="0 0 576 512" style="enable-background:new 0 0 576 512;" xml:space="preserve">
<style type="text/css">
	.st0{fill:#D6382D;}
</style>
<path class="st0" d="M288,256c0-53.9,42.1-96,96-96c53,0,96,42.1,96,96c0,53-43,96-96,96C330.1,352,288,309,288,256z M0,256
	C0,149.1,85.96,64,192,64h192c106,0,192,85.1,192,192c0,106-86,192-192,192H192C85.96,448,0,362,0,256z M48,256
	c0,79.5,64.5,144,144,144h192c79.5,0,144-64.5,144-144s-64.5-144-144-144H192C112.5,112,48,176.5,48,256z"/>
</svg>
