<?xml version="1.0" encoding="utf-8"?>
<!-- Generator: Adobe Illustrator 26.5.0, SVG Export Plug-In . SVG Version: 6.00 Build 0)  -->
<svg version="1.1" id="Capa_1" xmlns="http://www.w3.org/2000/svg" xmlns:xlink="http://www.w3.org/1999/xlink" x="0px" y="0px"
	 viewBox="0 0 600 600" style="enable-background:new 0 0 600 600;" xml:space="preserve">
<style type="text/css">
	.st0{fill:#E44631;}
</style>
<g>
	<path class="st0" d="M49.1,260.4c2.4,0,4.8-0.6,7-1.8l62.7-34.5c7.1-3.9,9.7-12.8,5.8-19.9c-3.9-7.1-12.8-9.7-19.9-5.8l-31,17
		C108.7,122,198.9,58.3,300.2,58.3c108.5,0,204.4,73,233.1,177.5c1.8,6.5,7.7,10.8,14.1,10.8c1.3,0,2.6-0.2,3.9-0.5
		c7.8-2.1,12.4-10.2,10.2-18C529.4,110.8,421.9,29,300.2,29c-114.7,0-216.7,72.8-255,179.3L27.5,176c-3.9-7.1-12.8-9.7-19.9-5.8
		c-7.1,3.9-9.7,12.8-5.8,19.9l34.5,62.7C38.9,257.7,43.9,260.4,49.1,260.4z"/>
	<path class="st0" d="M598.2,413.6l-34.5-62.7c-3.9-7.1-12.8-9.7-19.9-5.8l-62.7,34.5c-7.1,3.9-9.7,12.8-5.8,19.9
		c3.9,7.1,12.8,9.7,19.9,5.8l29.9-16.4C489.1,480,400,541.7,300.2,541.7c-108.5,0-204.3-73-233-177.5c-2.1-7.8-10.2-12.4-18-10.2
		c-7.8,2.1-12.4,10.2-10.2,18c32.2,117.2,139.6,199,261.2,199c113.7,0,215-71.5,254.1-176.5l18.2,33.2c2.7,4.9,7.7,7.6,12.8,7.6
		c2.4,0,4.8-0.6,7-1.8C599.5,429.5,602.1,420.6,598.2,413.6z"/>
	<path class="st0" d="M165.7,387.8l0.8,3.5c4.2,17.3,13.4,32.8,26.5,44.8c13.2,12.1,29.6,19.7,47.2,22.2c20.1,2.9,40.4,4.4,60.8,4.4
		c18.3,0,36.7-1.2,55.1-3.5l3.9-0.6c40.3-5.1,71.9-37,76.7-77.4c3.7-30.6-9.1-61.4-33.3-80.4l-4.5-3.6c-8.7-6.8-18-12.7-27.9-17.7
		c8.5-16.3,13.7-34.9,13.7-53.6c0-51.3-35.5-88.5-84.4-88.5c-48.9,0-84.4,37.2-84.4,88.5c0,18.5,4.5,36.5,12.1,52.2
		c-10.8,5.2-21.2,11.6-30.8,19.1C169.9,318.4,157.5,354,165.7,387.8z M300.3,166.6c33,0,55.1,23.8,55.1,59.2
		c0,39.5-31,76.6-55.1,76.6c-27.3,0-55.1-38.7-55.1-76.6C245.2,190.4,267.3,166.6,300.3,166.6z M215.2,320.2
		c9-7.1,18.7-12.9,28.9-17.4c15.3,17.7,35.2,29,56.1,29c19.4,0,38.7-10.9,53.9-27.9c9.4,4.4,18.4,9.8,26.6,16.3l4.6,3.6
		c16.3,12.7,24.8,33.4,22.4,53.9c-3.3,27.1-24.4,48.4-51.6,51.9l-3.9,0.6c-36,4.6-72.3,4.3-107.8-0.8c-11.8-1.7-22.7-6.8-31.6-14.9
		c-8.8-8-15-18.4-17.8-30l-0.8-3.5C188.7,358.3,197,334.4,215.2,320.2z"/>
</g>
</svg>
