<?xml version="1.0" encoding="utf-8"?>
<!-- Generator: Adobe Illustrator 25.2.3, SVG Export Plug-In . SVG Version: 6.00 Build 0)  -->
<svg version="1.1" id="Ebene_1" xmlns="http://www.w3.org/2000/svg" xmlns:xlink="http://www.w3.org/1999/xlink" x="0px" y="0px"
	 viewBox="0 0 833.9 219.5" style="enable-background:new 0 0 833.9 219.5;" xml:space="preserve">
<style type="text/css">
	.st0{fill:url(#SVGID_1_);}
	.st1{opacity:0.35;fill:#235050;}
	.st2{fill:#FFFFFF;}
	.st3{fill:#103928;}
	.st4{fill:#E34731;}
</style>
<g>
	<radialGradient id="SVGID_1_" cx="31.7147" cy="30.8337" r="120.8528" gradientUnits="userSpaceOnUse">
		<stop  offset="0" style="stop-color:#64E13C"/>
		<stop  offset="1" style="stop-color:#009B32"/>
	</radialGradient>
	<path class="st0" d="M38.7,120.2l2.1,1.4c9.7,6.3,21,9.6,32.7,9.6c16.1,0,31.2-6.3,42.5-17.6c11.4-11.4,17.6-26.5,17.6-42.5
		s-6.3-31.2-17.6-42.5c-11.4-11.4-26.5-17.6-42.5-17.6c-16.1,0-31.2,6.3-42.5,17.6C21.1,38.3,15,51.3,13.6,65.1
		c-1.4,13.6,2,27.3,9.4,38.7l1.4,2.1l-7.6,22L38.7,120.2z"/>
	<path class="st1" d="M116,28.5c-11.4-11.4-26.5-17.6-42.5-17.6c-16.1,0-31.2,6.3-42.5,17.6C21.1,38.3,15,51.3,13.6,65.1
		c-1.4,13.6,2,27.3,9.4,38.7l1.4,2.1l-7.6,22l22-7.6l2.1,1.4c9.7,6.3,21,9.6,32.7,9.6c16.1,0,31.2-6.3,42.5-17.6
		c11.4-11.4,17.6-26.5,17.6-42.5S127.4,39.9,116,28.5z M114.6,112.2c-11,11-25.6,17-41.1,17c-11.3,0-22.2-3.2-31.6-9.3l-2.9-1.9
		l-19,6.6l6.6-19l-1.9-2.9c-7.1-11-10.3-24.3-9-37.4C16.9,52,22.9,39.4,32.4,30c11-11,25.6-17,41.1-17c15.5,0,30.1,6,41.1,17
		c11,11,17,25.6,17,41.1C131.6,86.6,125.6,101.2,114.6,112.2z"/>
	<path id="tel_1_" class="st2" d="M55.7,87.9c-15.5-16-19-26.3-19.3-33.1c-0.4-8.3,6.2-16.7,9.9-16.9c3.7-0.1,6.8-0.7,7.9,1.6
		c1.1,2.3,5.4,12.2,6,13.7c0.6,1.6,1.3,3.5-0.4,5.8c-1.7,2.3-2.6,3.2-3.6,4.3c-1,1.1-1.6,2.8,0.2,5.2c1.8,2.4,5.5,7.8,8.4,10.3
		c3,2.6,11,7.8,13.5,8.7c2.5,0.9,3.5,1.1,5.1-0.7c1.6-1.8,3.4-4.2,4.5-5.7c1.1-1.4,2.4-2.7,5.4-1.3c3,1.4,10.2,4.7,12.2,5.8
		c2,1.1,2.9,1.2,2.7,4c-0.1,1.4-0.1,2.9-0.5,4.3c-1.6,5.2-6.2,10.2-16.1,10.6C81.9,105.1,63.9,96.4,55.7,87.9z"/>
	<path class="st2" d="M0,144.5l13-37.3C5.3,94.3,1.9,79.1,3.4,64.1C5,47.9,12.2,32.8,23.7,21.3C37,8,54.7,0.7,73.5,0.7
		c18.8,0,36.5,7.3,49.8,20.6c13.3,13.3,20.6,31,20.6,49.8c0,18.8-7.3,36.5-20.6,49.8c-13.3,13.3-31,20.6-49.8,20.6c0,0,0,0,0,0
		c-12.8,0-25.2-3.4-36.1-9.9L0,144.5z M38.7,120.2l2.1,1.4c9.7,6.3,21,9.6,32.7,9.6c16.1,0,31.2-6.3,42.5-17.6
		c11.4-11.4,17.6-26.5,17.6-42.5s-6.3-31.2-17.6-42.5c-11.4-11.4-26.5-17.6-42.5-17.6c-16.1,0-31.2,6.3-42.5,17.6
		C21.1,38.3,15,51.3,13.6,65.1c-1.4,13.6,2,27.3,9.4,38.7l1.4,2.1l-7.6,22L38.7,120.2z"/>
</g>
<g>
	<path class="st3" d="M156.9,2.5h10.9L181.5,45l14.1-42.7h8.5L218.2,45l13.7-42.5h10.6l-20,57.8h-8.7L199.6,19l-14.1,41.2h-8.7
		L156.9,2.5z"/>
	<path class="st3" d="M250.8,0h9.9v23.3c2.8-4.1,6.8-7.6,13.5-7.6c9.7,0,15.4,6.6,15.4,16.6v27.5h-9.9V35.2c0-6.7-3.4-10.6-9.3-10.6
		c-5.7,0-9.7,4-9.7,10.7v24.4h-9.9V0z"/>
	<path class="st3" d="M328,59.8v-5.3c-2.9,3.5-7.5,6.2-14,6.2c-8.2,0-15.4-4.7-15.4-13.4v-0.2c0-9.6,7.5-14.2,17.5-14.2
		c5.2,0,8.6,0.7,12,1.8V34c0-6-3.8-9.3-10.7-9.3c-4.8,0-8.4,1.1-12.4,2.7l-2.7-7.9c4.8-2.1,9.4-3.6,16.5-3.6c12.8,0,19,6.7,19,18.3
		v25.6H328z M328.2,41.7c-2.5-1-6.1-1.7-9.9-1.7c-6.2,0-9.9,2.5-9.9,6.7v0.2c0,4.1,3.7,6.4,8.4,6.4c6.6,0,11.5-3.7,11.5-9.1V41.7z"
		/>
	<path class="st3" d="M351.3,47.8V25.1h-5.5v-8.5h5.5V4.7h9.9v11.9h11.6v8.5h-11.6v21.2c0,3.9,2,5.4,5.3,5.4c2.2,0,4.2-0.5,6.1-1.5
		v8.1c-2.5,1.4-5.2,2.2-8.9,2.2C356.4,60.5,351.3,57.3,351.3,47.8z"/>
	<path class="st3" d="M379.3,54.2l4.4-6.7c4.7,3.5,9.7,5.3,14.2,5.3c4.3,0,6.7-1.8,6.7-4.7v-0.2c0-3.4-4.6-4.5-9.7-6.1
		c-6.4-1.8-13.5-4.4-13.5-12.7V29c0-8.2,6.8-13.2,15.4-13.2c5.4,0,11.3,1.9,15.9,4.9l-3.9,7c-4.2-2.5-8.6-4.1-12.2-4.1
		c-3.9,0-6.1,1.8-6.1,4.3v0.2c0,3.1,4.7,4.4,9.7,6.1c6.3,2,13.4,4.8,13.4,12.6V47c0,9.1-7,13.6-16.1,13.6
		C391.5,60.6,384.7,58.4,379.3,54.2z"/>
	<path class="st3" d="M445.2,2h9.3l25.2,57.8h-10.7L463.3,46h-27.1l-5.9,13.8H420L445.2,2z M459.6,37l-9.9-22.9L439.9,37H459.6z"/>
	<path class="st3" d="M488.5,16.5h9.9v7.2c3.2-4.5,7.7-8.1,14.7-8.1c10.2,0,20.2,8.1,20.2,22.4v0.2c0,14.3-9.8,22.4-20.2,22.4
		c-7.1,0-11.6-3.6-14.7-7.6v19.8h-9.9V16.5z M523.1,38.3v-0.2c0-8.4-5.7-13.8-12.4-13.8s-12.6,5.6-12.6,13.8v0.2
		c0,8.4,5.9,13.8,12.6,13.8C517.6,52.1,523.1,46.8,523.1,38.3z"/>
	<path class="st3" d="M543.4,16.5h9.9v7.2c3.2-4.5,7.7-8.1,14.7-8.1c10.2,0,20.2,8.1,20.2,22.4v0.2c0,14.3-9.8,22.4-20.2,22.4
		c-7.1,0-11.6-3.6-14.7-7.6v19.8h-9.9V16.5z M578,38.3v-0.2c0-8.4-5.7-13.8-12.4-13.8S553,29.8,553,38.1v0.2
		c0,8.4,5.9,13.8,12.6,13.8C572.4,52.1,578,46.8,578,38.3z"/>
	<path class="st3" d="M161.3,87.3H187c6.6,0,11.7,1.8,15,5.1c2.5,2.5,3.9,5.7,3.9,9.5v0.2c0,6.9-3.9,10.6-8.2,12.8
		c6.7,2.3,11.4,6.1,11.4,13.9v0.2c0,10.2-8.4,15.7-21.2,15.7h-26.5V87.3z M185,111.5c6.5,0,10.8-2.5,10.8-7.8v-0.2
		c0-4.5-3.6-7.3-10.1-7.3h-14.5v15.2H185z M187.9,135.7c6.9,0,11.1-2.7,11.1-7.9v-0.2c0-4.8-3.9-7.7-11.8-7.7h-16v15.7H187.9z"/>
	<path class="st3" d="M219.5,85.3h10.7v9.4h-10.7V85.3z M219.9,101.4h9.9v43.3h-9.9V101.4z"/>
	<path class="st3" d="M240.5,123.1v-0.2c0-14.3,9.7-22.4,20.1-22.4c7.1,0,11.6,3.6,14.7,7.6V84.8h9.9v59.8h-9.9v-7.2
		c-3.2,4.5-7.7,8.1-14.7,8.1C250.4,145.5,240.5,137.4,240.5,123.1z M275.5,123.1v-0.2c0-8.4-5.9-13.8-12.5-13.8
		c-6.8,0-12.5,5.2-12.5,13.8v0.2c0,8.4,5.7,13.8,12.5,13.8C269.6,136.9,275.5,131.4,275.5,123.1z"/>
	<path class="st3" d="M297.8,85.3h10.7v9.4h-10.7V85.3z M298.2,101.4h9.9v43.3h-9.9V101.4z"/>
	<path class="st3" d="M321,101.4h9.9v9.7c2.7-6.5,7.7-10.9,15.3-10.6V111h-0.6c-8.7,0-14.7,5.7-14.7,17.1v16.5H321V101.4z"/>
	<path class="st3" d="M351,123.2V123c0-12.4,8.8-22.5,21.1-22.5c13.8,0,20.7,10.8,20.7,23.3c0,0.9-0.1,1.8-0.2,2.8h-31.8
		c1.1,7,6.1,11,12.5,11c4.8,0,8.3-1.8,11.7-5.2l5.8,5.2c-4.1,4.9-9.7,8.1-17.7,8.1C360.7,145.6,351,136.5,351,123.2z M383.1,120
		c-0.7-6.4-4.4-11.4-11-11.4c-6.1,0-10.3,4.7-11.2,11.4H383.1z"/>
	<path class="st3" d="M400.5,123.3v-0.2c0-12.3,9.5-22.6,22.4-22.6c8.2,0,13.3,3,17.3,7.5l-6.1,6.6c-3-3.2-6.2-5.4-11.2-5.4
		c-7.2,0-12.5,6.2-12.5,13.8v0.2c0,7.7,5.3,13.9,12.9,13.9c4.7,0,8.1-2.2,11.2-5.4l6,5.9c-4.3,4.8-9.3,8.1-17.7,8.1
		C410,145.6,400.5,135.5,400.5,123.3z"/>
	<path class="st3" d="M446,123.3v-0.2c0-12.3,9.5-22.6,22.4-22.6c8.2,0,13.3,3,17.3,7.5l-6.1,6.6c-3-3.2-6.2-5.4-11.2-5.4
		c-7.2,0-12.5,6.2-12.5,13.8v0.2c0,7.7,5.3,13.9,12.9,13.9c4.7,0,8.1-2.2,11.2-5.4l6,5.9c-4.3,4.8-9.3,8.1-17.7,8.1
		C455.5,145.6,446,135.5,446,123.3z"/>
	<path class="st3" d="M495.4,85.3H506v9.4h-10.7V85.3z M495.8,101.4h9.9v43.3h-9.9V101.4z"/>
	<path class="st3" d="M516.2,123.3v-0.2c0-12.4,9.8-22.6,23.1-22.6s23,10.1,23,22.4v0.2c0,12.3-9.8,22.5-23.2,22.5
		C526,145.6,516.2,135.5,516.2,123.3z M552.5,123.3v-0.2c0-7.6-5.5-13.9-13.3-13.9c-7.9,0-13,6.2-13,13.8v0.2
		c0,7.5,5.5,13.9,13.2,13.9C547.4,137,552.5,130.7,552.5,123.3z"/>
	<path class="st3" d="M572.4,101.4h9.9v6.7c2.8-4.1,6.8-7.6,13.5-7.6c9.7,0,15.4,6.6,15.4,16.6v27.5h-9.9v-24.6
		c0-6.7-3.4-10.6-9.3-10.6c-5.7,0-9.7,4-9.7,10.7v24.4h-9.9V101.4z"/>
	<path class="st3" d="M649.7,144.6v-5.3c-2.9,3.5-7.5,6.2-14,6.2c-8.2,0-15.4-4.7-15.4-13.4V132c0-9.6,7.5-14.2,17.5-14.2
		c5.2,0,8.6,0.7,12,1.8v-0.8c0-6-3.8-9.3-10.7-9.3c-4.8,0-8.4,1.1-12.4,2.7l-2.7-7.9c4.8-2.1,9.4-3.6,16.5-3.6
		c12.8,0,19,6.7,19,18.3v25.6H649.7z M649.9,126.5c-2.5-1-6.1-1.7-9.9-1.7c-6.2,0-9.9,2.5-9.9,6.7v0.2c0,4.1,3.7,6.4,8.4,6.4
		c6.6,0,11.5-3.7,11.5-9.1V126.5z"/>
	<path class="st3" d="M671.9,84.8h9.9v59.8h-9.9V84.8z"/>
</g>
<path class="st4" d="M640.2,167.1h14.2l13.1,18h-13.7L640.2,167.1z"/>
<path class="st4" d="M640.3,185.2h13.7l0.1,0.1l-3.3,5.1l-10.8,17.9h-14.4L640.3,185.2z"/>
<path class="st4" d="M704.6,208.3H694l-8-13.3l-2.5,3.3v10.1h-9.2v-42.5h9.2v25.4l9.9-13.5h10.5l-10.3,13.2L704.6,208.3z"/>
<path class="st4" d="M718.7,173.3H709v-7.4h9.7V173.3z M718.4,208.3h-9.2v-30.6h9.2V208.3z"/>
<path class="st4" d="M756.9,192.6c0,2.5-0.4,4.8-1.1,6.9c-0.7,2.1-1.6,3.8-2.8,5.1c-1.2,1.4-2.6,2.5-4.1,3.2
	c-1.5,0.7-3.2,1.1-4.9,1.1c-1.6,0-3-0.2-4.1-0.6c-1.2-0.4-2.3-0.9-3.5-1.6v12.8h-9.2v-41.9h9.2v3.2c1.4-1.2,2.8-2.2,4.3-2.9
	c1.5-0.8,3.2-1.1,5.1-1.1c3.6,0,6.3,1.4,8.3,4.2C755.9,183.8,756.9,187.6,756.9,192.6z M747.5,192.7c0-3-0.5-5.1-1.4-6.5
	s-2.5-2-4.5-2c-0.8,0-1.7,0.1-2.7,0.4c-0.9,0.3-1.8,0.7-2.6,1.2v15.4c0.6,0.3,1.3,0.4,2,0.5c0.7,0.1,1.4,0.1,2.1,0.1
	c2.4,0,4.2-0.8,5.4-2.3C746.9,198.1,747.5,195.8,747.5,192.7z"/>
<path class="st4" d="M791.7,194.8h-21c0.1,2.4,1,4.3,2.6,5.5c1.5,1.3,3.9,1.9,6.9,1.9c1.9,0,3.9-0.4,5.6-1.1
	c1.8-0.7,3.3-1.5,4.3-2.4h1v7.9c-2.1,0.9-4,1.5-5.8,2c-1.8,0.4-3.9,0.6-6.1,0.6c-5.7,0-10.2-1.4-13.2-4.1c-3.1-2.8-4.6-6.7-4.6-11.8
	c0-5.1,1.4-9.1,4.3-12c2.9-3,6.9-4.4,11.9-4.4c4.6,0,8.2,1.3,10.5,3.8c2.3,2.5,3.5,6.2,3.5,10.9L791.7,194.8L791.7,194.8z
	 M782.6,189c0-2.1-0.5-3.6-1.4-4.6c-0.9-1-2.3-1.6-4.2-1.6c-1.8,0-3.2,0.5-4.4,1.5c-1.2,1-1.8,2.6-1.9,4.7L782.6,189L782.6,189z"/>
<path class="st4" d="M818.9,187h-0.8c-0.4-0.1-1-0.3-1.9-0.3c-0.8-0.1-1.6-0.1-2.1-0.1c-1.3,0-2.5,0.1-3.5,0.3
	c-1,0.2-2.1,0.5-3.2,0.9v20.5h-9.2v-30.7h9.2v4.5c2-1.8,3.8-3.1,5.3-3.7c1.5-0.6,2.8-0.9,4.1-0.9c0.3,0,0.7,0,1.1,0
	c0.4,0,0.8,0,1.1,0.1L818.9,187L818.9,187L818.9,187z"/>
<path class="st4" d="M833.9,208.3h-9.5v-10.7h9.5V208.3z"/>
<g>
	<g>
		<path class="st3" d="M574.9,202.8v4.9h-2.2v-32.5h2.2v14.9c2-3,4.9-5.6,9.3-5.6c5.5,0,11,4.4,11,11.8v0.1c0,7.4-5.6,11.9-11,11.9
			C579.7,208.2,576.8,205.7,574.9,202.8z M592.9,196.5L592.9,196.5c0-6-4.1-9.9-8.9-9.9c-4.7,0-9.2,4-9.2,9.8v0.1
			c0,5.8,4.5,9.7,9.2,9.7C589,206.1,592.9,202.5,592.9,196.5z"/>
		<path class="st3" d="M599.2,214l0.8-1.9c1.2,0.6,2.2,0.8,3.9,0.8c2.3,0,3.9-1.4,5.6-5.3L598.6,185h2.6l9.4,20.3l8.2-20.3h2.4
			l-9.8,23.5c-2,4.8-4.3,6.4-7.6,6.4C602,215,600.8,214.6,599.2,214z"/>
	</g>
</g>
</svg>
