<?xml version="1.0" encoding="utf-8"?>
<!-- Generator: Adobe Illustrator 26.5.0, SVG Export Plug-In . SVG Version: 6.00 Build 0)  -->
<svg version="1.1" id="Capa_1" xmlns="http://www.w3.org/2000/svg" xmlns:xlink="http://www.w3.org/1999/xlink" x="0px" y="0px"
	 viewBox="0 0 600 600" style="enable-background:new 0 0 600 600;" xml:space="preserve">
<style type="text/css">
	.st0{fill:#E34731;}
</style>
<g>
	<path class="st0" d="M168.4,367v-10.5c0-45.7-21.5-69.7-47.7-79.2c11.9-10.3,19.5-25.5,19.5-42.4c0-31-25.3-56.1-56.4-56.1
		s-56.4,25.2-56.4,56.1c0,16.9,7.6,32.1,19.5,42.4c-26.2,9.5-47.7,33.6-47.7,79.2V367c0,15.5,9.7,29.5,24.1,35
		c12.9,4.9,33.8,10.7,60.4,10.7c26.7,0,47.6-5.8,60.4-10.7C158.7,396.6,168.4,382.5,168.4,367z M83.8,197.5
		c20.8,0,37.7,16.8,37.7,37.4s-16.9,37.4-37.7,37.4s-37.7-16.8-37.7-37.4S63,197.5,83.8,197.5z M83.8,394c-23.8,0-42.4-5.1-53.8-9.4
		c-7.3-2.8-12.1-9.6-12.1-17.5v-10.5c0-59.1,40.8-65.5,58.3-65.5h15c17.5,0,58.3,6.4,58.3,65.5V367c0,7.7-4.8,14.7-12.1,17.5
		C126.2,388.8,107.6,394,83.8,394z"/>
	<path class="st0" d="M336.6,464.5c11.9-10.3,19.5-25.5,19.5-42.4c0-31-25.3-56.1-56.4-56.1s-56.4,25.2-56.4,56.1
		c0,16.9,7.6,32.1,19.5,42.4c-26.2,9.5-47.7,33.6-47.7,79.2v10.5c0,15.5,9.7,29.5,24.1,35c12.9,4.9,33.8,10.7,60.4,10.7
		c26.7,0,47.6-5.8,60.4-10.7c14.4-5.5,24.1-19.5,24.1-35v-10.5C384.3,498,362.8,474,336.6,464.5z M299.7,384.6
		c20.8,0,37.7,16.8,37.7,37.4c0,20.6-16.9,37.4-37.7,37.4c-20.8,0-37.7-16.8-37.7-37.4C262.1,401.4,279,384.6,299.7,384.6z
		 M365.6,554.2c0,7.8-4.7,14.7-12.1,17.5c0,0,0,0,0,0c-11.4,4.3-30,9.4-53.8,9.4s-42.4-5.1-53.8-9.4c-7.3-2.8-12.1-9.6-12.1-17.5
		v-10.5c0-59.1,40.8-65.5,58.3-65.5h15c17.5,0,58.3,6.4,58.3,65.5V554.2z"/>
	<path class="st0" d="M336.6,99.5c11.9-10.3,19.5-25.5,19.5-42.4c0-31-25.3-56.1-56.4-56.1s-56.4,25.2-56.4,56.1
		c0,16.9,7.6,32.1,19.5,42.4c-26.2,9.5-47.7,33.6-47.7,79.2v10.5c0,15.5,9.7,29.5,24.1,35c12.9,4.9,33.8,10.7,60.4,10.7
		c26.7,0,47.6-5.8,60.4-10.7c14.4-5.5,24.1-19.5,24.1-35v-10.5C384.3,133.1,362.8,109.1,336.6,99.5z M299.7,19.7
		c20.8,0,37.7,16.8,37.7,37.4s-16.9,37.4-37.7,37.4c-20.8,0-37.7-16.8-37.7-37.4S279,19.7,299.7,19.7z M365.6,189.3
		c0,7.8-4.7,14.7-12.1,17.5c0,0,0,0,0,0c-11.4,4.3-30,9.4-53.8,9.4s-42.4-5.1-53.8-9.4c-7.3-2.8-12.1-9.6-12.1-17.5v-10.5
		c0-59.1,40.8-65.5,58.3-65.5h15c17.5,0,58.3,6.4,58.3,65.5V189.3z"/>
	<path class="st0" d="M551.1,277.3c11.9-10.3,19.5-25.5,19.5-42.4c0-31-25.3-56.1-56.4-56.1s-56.4,25.2-56.4,56.1
		c0,16.9,7.6,32.1,19.5,42.4c-26.2,9.5-47.7,33.6-47.7,79.2V367c0,15.5,9.7,29.5,24.1,35c12.9,4.9,33.8,10.7,60.4,10.7
		c26.7,0,47.6-5.8,60.4-10.7c14.4-5.5,24.1-19.5,24.1-35v-10.5C598.8,310.9,577.3,286.9,551.1,277.3z M514.2,197.5
		c20.8,0,37.7,16.8,37.7,37.4s-16.9,37.4-37.7,37.4c-20.8,0-37.7-16.8-37.7-37.4S493.4,197.5,514.2,197.5z M580.1,367
		c0,7.7-4.8,14.7-12.1,17.5c-11.4,4.3-30,9.4-53.8,9.4c-23.8,0-42.4-5.1-53.8-9.4c-7.3-2.8-12.1-9.6-12.1-17.5v-10.5
		c0-59.1,40.8-65.5,58.3-65.5h15c17.5,0,58.3,6.4,58.3,65.5V367z"/>
	<path class="st0" d="M497.1,438.9c-4.2-3.1-10-2.2-13.1,2c-20.3,27.6-47.1,50.7-77.3,66.7c-4.6,2.4-6.3,8.1-3.9,12.7
		c1.7,3.2,4.9,5,8.3,5c1.5,0,3-0.4,4.4-1.1c32.7-17.4,61.6-42.3,83.6-72.2C502.2,447.8,501.3,442,497.1,438.9z"/>
	<path class="st0" d="M219.7,80c-1.9-4.8-7.4-7.1-12.2-5.2c-38.9,15.5-73.6,40.9-100.2,73.4c-3.3,4-2.7,9.9,1.3,13.2
		c1.7,1.4,3.8,2.1,5.9,2.1c2.7,0,5.4-1.2,7.2-3.4c24.6-30.1,56.6-53.5,92.6-67.9C219.3,90.2,221.6,84.8,219.7,80z"/>
	<path class="st0" d="M192,507.6c-30.2-16.1-57-39.1-77.3-66.7c-3.1-4.2-8.9-5-13.1-2c-4.2,3.1-5,8.9-2,13.1
		c22,29.8,50.9,54.8,83.6,72.2c1.4,0.7,2.9,1.1,4.4,1.1c3.4,0,6.6-1.8,8.3-5C198.3,515.7,196.6,510.1,192,507.6z"/>
	<path class="st0" d="M384.3,92.1c36,14.4,68,37.9,92.6,67.9c1.9,2.3,4.5,3.4,7.2,3.4c2.1,0,4.2-0.7,5.9-2.1c4-3.3,4.6-9.2,1.3-13.2
		c-26.6-32.5-61.2-57.9-100.2-73.4c-4.8-1.9-10.2,0.4-12.2,5.2C377.2,84.8,379.5,90.2,384.3,92.1z"/>
</g>
</svg>
