<?xml version="1.0" encoding="utf-8"?>
<!-- Generator: Adobe Illustrator 25.2.3, SVG Export Plug-In . SVG Version: 6.00 Build 0)  -->
<svg version="1.1" id="Capa_1" xmlns="http://www.w3.org/2000/svg" xmlns:xlink="http://www.w3.org/1999/xlink" x="0px" y="0px"
	 viewBox="0 0 448 565.3" style="enable-background:new 0 0 448 565.3;" xml:space="preserve">
<style type="text/css">
	.st0{fill:#103928;}
</style>
<g>
	<path class="st0" d="M348.5,230.7v-24.5c0-32.2-26.3-58.5-58.5-58.5H157.3c-32.2,0-58.5,26.3-58.5,58.5v24.5
		c0,32.2,26.3,58.5,58.5,58.5H290C322.1,289.2,348.5,262.9,348.5,230.7z M290,275.2H157.3c-24.5,0-44.4-19.9-44.4-44.4v-24.5
		c0-24.5,19.9-44.4,44.4-44.4H290c24.5,0,44.4,19.9,44.4,44.4v24.5C334.4,255.2,314.5,275.2,290,275.2z"/>
	
		<ellipse transform="matrix(0.9731 -0.2305 0.2305 0.9731 -41.9886 45.2452)" class="st0" cx="172.7" cy="202.3" rx="13.1" ry="13.1"/>
	<path class="st0" d="M274.7,189.2c-7.3,0-13.1,5.9-13.1,13.1c0,7.3,5.9,13.1,13.1,13.1c7.3,0,13.1-5.9,13.1-13.1
		C287.8,195.1,281.9,189.2,274.7,189.2z"/>
	<path class="st0" d="M439.1,264.4c5.3-11.6,5.3-25.7,5.3-39.7v-4.3c0-24.2,0-49-27.8-59.9c-4.6-29.9-19.5-56.4-40.9-75.7V54.8
		c11.6-3.1,20.2-13.7,20.2-26.3c0-15-12.2-27.3-27.3-27.3c-15,0-27.3,12.2-27.3,27.3c0,12.6,8.6,23.2,20.2,26.3v18.9
		c-20.5-13.8-45.1-22-71.6-22H157.3c-26.5,0-51.2,8.1-71.6,21.9V54.8c11.6-3.1,20.2-13.7,20.2-26.3c0-15-12.2-27.3-27.3-27.3
		c-15,0-27.3,12.2-27.3,27.3c0,12.6,8.6,23.2,20.2,26.3v29.9c-21.5,19.4-36.4,45.9-41,75.8C2.8,171.4,2.8,196.2,2.8,220.4v4.3
		c0,14,0,28.1,5.3,39.7C2.9,283.5,0,303.5,0,324.3c0,54.4,19.7,106.6,55.5,147.4l-20.4,83.8c-0.6,2.7,0.3,5.5,2.4,7.2
		c1.3,1,2.9,1.6,4.4,1.6c1.1,0,2.1-0.2,3.1-0.7l79.6-38.7c30.9,15.3,64.2,23,99,23c123.3,0,223.7-100.3,223.7-223.7
		C447.3,303.5,444.5,283.4,439.1,264.4z M430.3,220.4v4.3c0,29.6,0,48.4-40.7,51.1c0.1-2.2,0.2-4.4,0.2-6.6V180
		c0-3.6-0.2-7.2-0.6-10.7C430.3,171.9,430.3,190.7,430.3,220.4z M355.5,28.5c0-7.2,5.9-13.1,13.1-13.1c7.2,0,13.1,5.9,13.1,13.1
		c0,7.2-5.9,13.1-13.1,13.1C361.4,41.6,355.5,35.7,355.5,28.5z M65.5,28.5c0-7.2,5.9-13.1,13.1-13.1c7.2,0,13.1,5.9,13.1,13.1
		c0,7.2-5.9,13.1-13.1,13.1C71.4,41.6,65.5,35.7,65.5,28.5z M157.3,65.9H290c54.9,0,100.8,38.9,111.6,90.6
		c-4.5-0.7-9.4-1.2-14.8-1.5c-11.1-43.1-50.3-75-96.8-75H157.3c-46.5,0-85.7,31.9-96.8,75c-5.4,0.2-10.4,0.7-14.9,1.5
		C56.5,104.8,102.5,65.9,157.3,65.9z M293.7,298.9c-12.7,0-23,10.3-23,23c0,12.7,10.3,23,23,23c10.8,0,19.8-7.4,22.3-17.4
		c17.9-2.4,35.5-7.7,49-17c-14.6,26.4-42.8,44.3-75.1,44.3H157.3c-47.3,0-85.8-38.5-85.8-85.8V180c0-47.3,38.5-85.8,85.8-85.8H290
		c47.3,0,85.8,38.5,85.8,85.8v84.7c0,30.2-29.3,44.5-60.7,48.7C311.7,304.9,303.4,298.9,293.7,298.9z M302.6,321.9
		c0,4.9-4,8.9-8.9,8.9c-4.9,0-8.9-4-8.9-8.9c0-4.9,4-8.9,8.9-8.9C298.6,313,302.6,317,302.6,321.9z M245.5,369.1v9.9
		c0,12.1-9.8,21.9-21.9,21.9c-12.1,0-21.9-9.8-21.9-21.9v-9.9H245.5z M17,220.4c0-29.7,0-48.5,41-51.1c-0.4,3.5-0.6,7.1-0.6,10.7
		v89.2c0,2.2,0.1,4.4,0.2,6.6C17,273.1,17,254.3,17,224.7V220.4z M115.3,432.7v81l-62.9,30.5l17.7-72.9c0.6-2.3-0.1-4.7-1.6-6.4
		c-35-38.6-54.3-88.6-54.3-140.7c0-15.8,1.8-31.2,5.1-46c8.4,6.4,21.1,10.7,40.4,11.7c9.6,45.1,49.8,79.1,97.7,79.1h30.3v9.9
		c0,0.1,0,0.1,0,0.2C151.3,386.2,115.3,403.7,115.3,432.7z M317.9,511.3c-28.3,14.3-60.3,22.5-94.2,22.5c-33.2,0-64.8-7.5-94.2-22.4
		v-78.6c0-18.5,28.1-33.5,61-39.8c0.2,0.4,0.3,0.7,0.5,1.1c0.2,0.5,0.5,1.1,0.8,1.6c0.3,0.5,0.5,1,0.8,1.4c0.2,0.4,0.5,0.8,0.7,1.2
		c0.3,0.5,0.6,1,0.9,1.4c0.2,0.3,0.5,0.6,0.7,0.9c0.7,0.9,1.4,1.8,2.2,2.6c0.2,0.2,0.4,0.5,0.6,0.7c0.5,0.5,0.9,0.9,1.4,1.4
		c0.2,0.2,0.5,0.4,0.7,0.7c0.5,0.4,1,0.9,1.5,1.3c0.2,0.1,0.3,0.2,0.5,0.3c1.1,0.9,2.3,1.7,3.6,2.4c0.1,0.1,0.3,0.2,0.4,0.2
		c0.6,0.3,1.2,0.7,1.9,1c0.2,0.1,0.5,0.2,0.7,0.4c0.7,0.3,1.3,0.6,2,0.9c0.1,0,0.2,0.1,0.3,0.1c1.4,0.6,2.9,1,4.5,1.4
		c0.1,0,0.2,0.1,0.4,0.1c0.7,0.2,1.4,0.3,2.2,0.4c0.3,0,0.5,0.1,0.8,0.1c0.7,0.1,1.5,0.2,2.2,0.3c0.2,0,0.3,0,0.5,0
		c0.8,0.1,1.6,0.1,2.4,0.1c0.8,0,1.6-0.1,2.4-0.1c0.2,0,0.3,0,0.5,0c0.7-0.1,1.5-0.2,2.2-0.3c0.3,0,0.6-0.1,0.8-0.1
		c0.7-0.1,1.5-0.3,2.2-0.4c0.1,0,0.3-0.1,0.4-0.1c1.5-0.4,3-0.8,4.4-1.4c0.1-0.1,0.3-0.1,0.4-0.1c0.7-0.3,1.3-0.6,1.9-0.9
		c0.3-0.1,0.5-0.2,0.8-0.4c0.6-0.3,1.2-0.6,1.9-1c0.2-0.1,0.3-0.2,0.5-0.3c1.2-0.7,2.4-1.5,3.5-2.3c0.2-0.1,0.4-0.3,0.5-0.4
		c0.5-0.4,1-0.8,1.5-1.3c0.3-0.2,0.5-0.5,0.8-0.7c0.5-0.4,0.9-0.9,1.4-1.3c0.2-0.2,0.4-0.5,0.7-0.7c0.8-0.8,1.5-1.7,2.2-2.6
		c0.2-0.3,0.5-0.6,0.7-1c0.3-0.5,0.6-0.9,0.9-1.4c0.2-0.4,0.5-0.8,0.7-1.2c0.3-0.5,0.5-0.9,0.8-1.4c0.3-0.5,0.5-1.1,0.8-1.6
		c0.2-0.3,0.3-0.7,0.5-1c32.9,6.3,61,21.3,61,39.8V511.3z M332,503.5v-70.7v0c0-29.1-36-46.6-72.4-53.6c0-0.1,0-0.1,0-0.2v-9.9H290
		c47.9,0,88.1-34,97.7-79.1c19.2-1,32-5.3,40.4-11.7c3.3,14.8,5.1,30.2,5.1,46C433.2,400.2,392.6,466.8,332,503.5z"/>
	<path class="st0" d="M240.9,233.5c-4.6,4.6-10.7,7.2-17.3,7.2c-6.5,0-12.7-2.5-17.3-7.2c-2.7-2.7-7.2-2.7-9.9,0
		c-2.7,2.7-2.7,7.2,0,9.9c7.3,7.3,16.9,11.3,27.2,11.3c10.3,0,19.9-4,27.2-11.3c2.7-2.7,2.7-7.2,0-9.9
		C248.1,230.7,243.7,230.7,240.9,233.5z"/>
</g>
</svg>
