<?xml version="1.0" encoding="utf-8"?>
<!-- Generator: Adobe Illustrator 25.2.3, SVG Export Plug-In . SVG Version: 6.00 Build 0)  -->
<svg version="1.1" id="Capa_1" xmlns="http://www.w3.org/2000/svg" xmlns:xlink="http://www.w3.org/1999/xlink" x="0px" y="0px"
	 viewBox="0 0 291.72 51.12" style="enable-background:new 0 0 291.72 51.12;" xml:space="preserve">
<style type="text/css">
	.st0{fill:#212529;}
	.st1{fill:#E34731;}
</style>
<g>
	<path class="st0" d="M47.62,26.48c-0.87-0.32-1.37-0.5-1.5-0.53c-1.39-0.48-2.38-0.92-3-1.31c-0.61-0.42-0.92-1.01-0.92-1.79
		c0-1.39,1.14-2.08,3.43-2.08c1.13,0,2.14,0.16,3.04,0.48c0.93,0.29,1.61,0.64,2.03,1.06l1.88-4.15c-0.68-0.45-1.66-0.82-2.95-1.11
		c-1.26-0.29-2.54-0.44-3.87-0.44c-2.67,0-4.82,0.58-6.43,1.74c-1.58,1.13-2.37,2.71-2.37,4.74c0,1.77,0.56,3.2,1.69,4.3
		c1.13,1.06,2.66,1.98,4.59,2.75l1.84,0.68c1.32,0.48,2.24,0.9,2.76,1.26c0.52,0.35,0.77,0.85,0.77,1.5c0,1.45-1.24,2.17-3.72,2.17
		s-4.69-0.68-6.62-2.03l-1.74,4.11c0.71,0.55,1.88,1.03,3.53,1.45c1.67,0.39,3.29,0.58,4.83,0.58c2.54,0,4.64-0.56,6.28-1.69
		c1.68-1.13,2.51-2.79,2.51-4.98c0-1.61-0.5-2.93-1.5-3.96C51.21,28.2,49.68,27.29,47.62,26.48z"/>
	<path class="st0" d="M17.01,3.82L0,39.38h6.04l3.04-6.96h16.28l3.04,6.96h6.23L17.54,3.82H17.01z M23.24,27.54H11.26l3.87-8.6
		l2.13-4.83h0.1l2.08,4.88L23.24,27.54z"/>
	<path class="st0" d="M133.93,27.4c0-3.41-0.84-6.06-2.51-7.92c-1.64-1.9-4.17-2.85-7.59-2.85c-2.19,0-4.15,0.48-5.9,1.45
		c-1.74,0.93-3.11,2.29-4.11,4.06c-0.97,1.77-1.45,3.83-1.45,6.19c0,2.09,0.42,4.03,1.26,5.8c0.84,1.74,2.14,3.14,3.91,4.2
		c1.77,1.03,3.98,1.55,6.62,1.55c1.97,0,3.64-0.19,5.03-0.58c1.39-0.39,2.48-0.84,3.29-1.35l-1.59-3.72
		c-0.84,0.45-1.76,0.81-2.76,1.06c-1,0.26-2.27,0.39-3.82,0.39c-1.87,0-3.33-0.44-4.4-1.31c-1.03-0.87-1.72-2.29-2.08-4.25h15.95
		C133.88,29.17,133.93,28.27,133.93,27.4z M117.84,26.48c0.52-3.64,2.46-5.46,5.85-5.46c1.68,0,2.96,0.42,3.87,1.26
		c0.9,0.8,1.34,2.21,1.31,4.2H117.84z"/>
	<path class="st0" d="M101.64,3.87v13.68l0.24,3.77c-0.55-1.29-1.59-2.38-3.14-3.28c-1.55-0.93-3.25-1.4-5.12-1.4
		c-3.35,0-6.01,1.06-7.97,3.19c-1.97,2.09-2.95,4.9-2.95,8.41c0,2.35,0.5,4.41,1.5,6.19c1.03,1.74,2.38,3.09,4.06,4.06
		c1.71,0.93,3.56,1.4,5.56,1.4c1.8,0,3.43-0.44,4.88-1.31c1.45-0.9,2.45-1.93,3-3.09l0.1,3.91h4.98V3.87H101.64z M101.2,28.56
		c0,2.06-0.63,3.74-1.88,5.03c-1.26,1.26-2.8,1.88-4.64,1.88c-2.09,0-3.71-0.66-4.83-1.98c-1.1-1.35-1.64-3.11-1.64-5.27
		c0-2.13,0.56-3.85,1.69-5.17c1.13-1.35,2.72-2.03,4.78-2.03c1.19,0,2.29,0.31,3.29,0.92c1,0.61,1.79,1.47,2.37,2.56
		c0.58,1.09,0.87,2.34,0.87,3.72V28.56z"/>
	<polygon class="st0" points="58.6,11.07 62.13,13.05 70.58,2.95 65.99,0 	"/>
	<rect x="59.52" y="17.2" class="st0" width="5.41" height="22.18"/>
</g>
<g>
	<path class="st1" d="M161.58,26.48c-0.87-0.32-1.37-0.5-1.5-0.53c-1.39-0.48-2.38-0.92-3-1.31c-0.61-0.42-0.92-1.01-0.92-1.79
		c0-1.39,1.14-2.08,3.43-2.08c1.13,0,2.14,0.16,3.04,0.48c0.93,0.29,1.61,0.64,2.03,1.06l1.88-4.15c-0.68-0.45-1.66-0.82-2.95-1.11
		c-1.26-0.29-2.54-0.44-3.87-0.44c-2.67,0-4.82,0.58-6.43,1.74c-1.58,1.13-2.37,2.71-2.37,4.74c0,1.77,0.56,3.2,1.69,4.3
		c1.13,1.06,2.66,1.98,4.59,2.75l1.84,0.68c1.32,0.48,2.24,0.9,2.75,1.26c0.52,0.35,0.77,0.85,0.77,1.5c0,1.45-1.24,2.17-3.72,2.17
		c-2.48,0-4.69-0.68-6.62-2.03l-1.74,4.11c0.71,0.55,1.88,1.03,3.53,1.45c1.68,0.39,3.29,0.58,4.83,0.58c2.54,0,4.64-0.56,6.28-1.69
		c1.67-1.13,2.51-2.79,2.51-4.98c0-1.61-0.5-2.93-1.5-3.96C165.18,28.2,163.65,27.29,161.58,26.48z"/>
	<path class="st1" d="M176.13,6.23c-1,0-1.84,0.32-2.51,0.97c-0.68,0.64-1.01,1.42-1.01,2.32c0,1,0.34,1.84,1.01,2.51
		c0.68,0.68,1.51,1.01,2.51,1.01c1,0,1.82-0.34,2.46-1.01c0.68-0.68,1.01-1.51,1.01-2.51c0-0.9-0.34-1.67-1.01-2.32
		C177.92,6.56,177.1,6.23,176.13,6.23z"/>
	<rect x="173.48" y="17.2" class="st1" width="5.41" height="22.18"/>
	<path class="st1" d="M242.49,16.62c-3.77,0-6.54,1.56-8.31,4.69V17.2h-5.03v33.92h5.07l-0.05-15.08c0.77,1.22,1.84,2.17,3.19,2.85
		c1.39,0.64,3.01,0.97,4.88,0.97c2,0,3.8-0.48,5.41-1.45c1.64-0.97,2.93-2.34,3.87-4.11c0.97-1.77,1.45-3.82,1.45-6.14
		c0-3.74-0.97-6.59-2.9-8.55C248.14,17.62,245.61,16.62,242.49,16.62z M245.87,33.49c-1.13,1.32-2.74,1.98-4.83,1.98
		c-1.19,0-2.29-0.29-3.29-0.87c-1-0.61-1.8-1.45-2.42-2.51c-0.58-1.09-0.87-2.34-0.87-3.72v-0.34c0-1.39,0.29-2.59,0.87-3.62
		c0.61-1.06,1.42-1.87,2.42-2.42c1.03-0.58,2.13-0.87,3.29-0.87c2.13,0,3.74,0.66,4.83,1.98c1.13,1.29,1.69,3.03,1.69,5.22
		C247.56,30.41,247,32.13,245.87,33.49z"/>
	<path class="st1" d="M291.72,27.4c0-3.41-0.84-6.06-2.51-7.92c-1.64-1.9-4.17-2.85-7.59-2.85c-2.19,0-4.16,0.48-5.9,1.45
		c-1.74,0.93-3.11,2.29-4.11,4.06c-0.97,1.77-1.45,3.83-1.45,6.19c0,2.09,0.42,4.03,1.26,5.8c0.84,1.74,2.14,3.14,3.91,4.2
		c1.77,1.03,3.98,1.55,6.62,1.55c1.97,0,3.64-0.19,5.03-0.58c1.38-0.39,2.48-0.84,3.28-1.35l-1.59-3.72
		c-0.84,0.45-1.75,0.81-2.75,1.06c-1,0.26-2.27,0.39-3.82,0.39c-1.87,0-3.33-0.44-4.4-1.31c-1.03-0.87-1.72-2.29-2.08-4.25h15.95
		C291.68,29.17,291.72,28.27,291.72,27.4z M275.63,26.48c0.52-3.64,2.46-5.46,5.85-5.46c1.67,0,2.96,0.42,3.87,1.26
		c0.9,0.8,1.34,2.21,1.3,4.2H275.63z"/>
	<path class="st1" d="M219.41,17.98c-1.19-0.9-2.95-1.35-5.27-1.35c-1.58,0-3.08,0.37-4.49,1.11c-1.42,0.74-2.48,1.74-3.19,3
		c-0.9-2.71-3.33-4.07-7.3-4.11c-1.77,0-3.35,0.39-4.73,1.16c-1.35,0.77-2.38,1.92-3.09,3.43V17.2h-5.22v22.18h5.27V28.36
		c0-1.32,0.29-2.54,0.87-3.67c0.61-1.16,1.4-2.08,2.37-2.76c1-0.68,2.06-1.01,3.19-1.01c1.29,0,2.22,0.24,2.8,0.73
		c0.58,0.48,0.93,1.14,1.06,1.98c0.13,0.84,0.19,2.11,0.19,3.82v11.94h5.22V28.36c0-2.22,0.52-4.01,1.55-5.36
		c1.06-1.39,2.61-2.08,4.64-2.08c1.51,0,2.53,0.56,3.04,1.69c0.55,1.13,0.82,3,0.82,5.6v11.16h5.27V28.27
		c0-2.74-0.21-4.91-0.63-6.52C221.39,20.1,220.6,18.85,219.41,17.98z"/>
	<rect x="258.98" y="3.87" class="st1" width="5.17" height="35.52"/>
</g>
</svg>
