<?xml version="1.0" encoding="utf-8"?>
<!-- Generator: Adobe Illustrator 26.5.0, SVG Export Plug-In . SVG Version: 6.00 Build 0)  -->
<svg version="1.1" id="Capa_1" xmlns="http://www.w3.org/2000/svg" xmlns:xlink="http://www.w3.org/1999/xlink" x="0px" y="0px"
	 viewBox="0 0 600 600" style="enable-background:new 0 0 600 600;" xml:space="preserve">
<style type="text/css">
	.st0{fill:#103928;}
</style>
<path class="st0" d="M299.9,360c53.8,0,96.7-43.6,96.7-97.5S352.9,165,299.9,165c-53.8,0-96.7,43.6-96.7,97.5
	C202.4,316.3,246.1,360,299.9,360z M299.9,195c37.2,0,67.5,30.3,67.5,67.5S337,330,299.9,330s-67.5-30.3-67.5-67.5
	S262.7,195,299.9,195z M346.8,390h-93.6C179.6,390,120,446,120,515c0,13.9,11.9,25,26.6,25h306.8c14.7,0,26.6-11.2,26.6-25
	C480,446,420.4,390,346.8,390z M150.2,510c2.8-50.1,48-90,102.3-90h94.3c55.1,0,100.2,39.9,102.3,90H150.2z M480,210
	c41.4,0,75-33.6,75-75s-33.6-75-75-75c-41.4,0-75,33.6-75,75S438.6,210,480,210z M480,90c24.8,0,45,20.2,45,45s-20.2,45-45,45
	s-45-20.2-45-45S455.2,90,480,90z M120,210c41.4,0,75-33.6,75-75s-33.6-75-75-75c-41.4,0-75,33.6-75,75S78.6,210,120,210z M120,90
	c24.8,0,45,20.2,45,45s-20.2,45-45,45s-45-20.2-45-45S95.2,90,120,90z M526,240h-61c-10.5,0-20.7,2.3-30.4,7
	c-7.5,3.6-10.7,12.5-7.1,20c3.6,7.5,12.5,10.7,20,7.1c5.7-2.7,11.6-4.1,17.6-4.1h61c23.5,0,44,21.3,44,47.5V330c0,8.3,6.7,15,15,15
	s15-6.8,15-15v-12.5C600,274.8,566.8,240,526,240z M152.6,274c7.4,3.6,16.4,0.4,20-7.1c3.6-7.5,0.4-16.4-7.1-20
	c-9.8-4.6-20-6.9-30.5-6.9H74c-40.8,0-74,34.8-74,77.5V330c0,8.3,6.7,15,15,15s15-6.8,15-15v-12.5c0-26.2,19.7-47.5,44-47.5h61
	C141,270,146.9,271.4,152.6,274z"/>
</svg>
