<?xml version="1.0" encoding="utf-8"?>
<!-- Generator: Adobe Illustrator 26.5.0, SVG Export Plug-In . SVG Version: 6.00 Build 0)  -->
<svg version="1.1" id="Capa_1" xmlns="http://www.w3.org/2000/svg" xmlns:xlink="http://www.w3.org/1999/xlink" x="0px" y="0px"
	 viewBox="0 0 600 600" style="enable-background:new 0 0 600 600;" xml:space="preserve">
<style type="text/css">
	.st0{fill:#103928;}
</style>
<path class="st0" d="M499.5,333.3h-133c-9.2,0-16.6,7.4-16.6,16.6s7.5,16.6,16.6,16.6h133c9.2,0,16.6-7.4,16.6-16.6
	S508.7,333.3,499.5,333.3z M200.2,300c36.7,0,66.5-29.8,66.5-66.5S236.9,167,200.2,167s-66.5,29.8-66.5,66.5S163.5,300,200.2,300z
	 M200.2,200.2c18.3,0,33.3,14.9,33.3,33.3s-15,33.3-33.3,33.3s-33.3-15-33.3-33.3S181.9,200.2,200.2,200.2z M233.5,333.3H167
	c-45.9,0-83.1,37.2-83.1,83.1c0,9.1,7.4,16.6,16.6,16.6s16.6-7.4,16.6-16.6c0-27.5,22.3-49.9,49.9-49.9h66.5
	c27.6,0,49.9,22.3,49.9,49.9c0,9.2,7.4,16.6,16.6,16.6s16.6-7.4,16.6-16.6C316.6,370.5,279.4,333.3,233.5,333.3z M532.8,67.2H67.2
	C30.5,67.2,0.7,97,0.7,133.7v332.6c0,36.7,29.8,66.5,66.5,66.5h465.6c36.7,0,66.5-29.8,66.5-66.5V133.7
	C599.3,97,569.5,67.2,532.8,67.2z M566.1,466.3c0,18.3-14.9,33.3-33.3,33.3H67.2c-18.3,0-33.3-14.9-33.3-33.3V133.7
	c0-18.3,14.9-33.3,33.3-33.3h465.6c18.3,0,33.3,14.9,33.3,33.3V466.3z M499.5,266.7h-133c-9.2,0-16.6,7.4-16.6,16.6
	s7.5,16.6,16.6,16.6h133c9.2,0,16.6-7.4,16.6-16.6S508.7,266.7,499.5,266.7z M499.5,200.2h-133c-9.2,0-16.6,7.4-16.6,16.6
	c0,9.2,7.5,16.6,16.6,16.6h133c9.2,0,16.6-7.4,16.6-16.6C516.2,207.7,508.7,200.2,499.5,200.2z"/>
</svg>
