<?xml version="1.0" encoding="utf-8"?>
<!-- Generator: Adobe Illustrator 26.5.0, SVG Export Plug-In . SVG Version: 6.00 Build 0)  -->
<svg version="1.1" id="Capa_1" xmlns="http://www.w3.org/2000/svg" xmlns:xlink="http://www.w3.org/1999/xlink" x="0px" y="0px"
	 viewBox="0 0 600 600" style="enable-background:new 0 0 600 600;" xml:space="preserve">
<style type="text/css">
	.st0{fill:#103928;}
</style>
<path class="st0" d="M509.6,87.1C453.6,30.9,378.9,0,299.6,0C135.8,0,2.5,133.3,2.5,297c0,52.3,13.6,103.4,39.6,148.5L0,599.4
	L157.5,558c43.3,23.7,92.2,36.1,142,36.1h0.1c163.6,0,299.8-133.3,299.8-297C599.4,217.8,565.7,143.3,509.6,87.1z M299.6,544.1
	c-44.4,0-87.9-11.9-125.8-34.4l-9-5.4l-93.4,24.5l24.9-91.1l-5.9-9.4C65.7,389.1,52.7,343.7,52.7,297c0-136.1,110.8-246.8,247-246.8
	c66,0,127.9,25.7,174.5,72.4s75.2,108.6,75.1,174.6C549.2,433.4,435.6,544.1,299.6,544.1z M435,359.2c-7.4-3.7-43.9-21.7-50.7-24.1
	c-6.8-2.5-11.8-3.7-16.7,3.7c-5,7.5-19.1,24.1-23.5,29.2c-4.3,5-8.7,5.6-16.1,1.9c-43.6-21.8-72.2-38.9-101-88.3
	c-7.6-13.1,7.6-12.2,21.8-40.5c2.4-5,1.2-9.2-0.7-13c-1.9-3.7-16.7-40.3-22.9-55.1c-6-14.4-12.2-12.4-16.7-12.7
	c-4.3-0.3-9.2-0.3-14.2-0.3c-5,0-13,1.9-19.8,9.2c-6.8,7.5-26,25.4-26,61.9s26.6,71.8,30.2,76.8c3.7,5,52.3,79.9,126.8,112.1
	c47.1,20.3,65.6,22.1,89.1,18.6c14.3-2.1,43.9-17.9,50-35.3s6.2-32.2,4.3-35.3C447.3,364.7,442.3,362.8,435,359.2z"/>
</svg>
