<?xml version="1.0" encoding="utf-8"?>
<!-- Generator: Adobe Illustrator 25.2.3, SVG Export Plug-In . SVG Version: 6.00 Build 0)  -->
<svg version="1.1" id="Layer_1" xmlns="http://www.w3.org/2000/svg" xmlns:xlink="http://www.w3.org/1999/xlink" x="0px" y="0px"
	 viewBox="0 0 60 60" style="enable-background:new 0 0 60 60;" xml:space="preserve">
<style type="text/css">
	.st0{fill:#E34731;}
</style>
<path class="st0" d="M10,41.7c0-0.9,0.8-1.7,1.7-1.7h6.7c0.9,0,1.7,0.8,1.7,1.7c0,0.9-0.8,1.7-1.7,1.7h-6.7
	C10.8,43.3,10,42.6,10,41.7z M23.3,41.7c0-0.9,0.8-1.7,1.7-1.7h13.3c0.9,0,1.7,0.8,1.7,1.7c0,0.9-0.8,1.7-1.7,1.7H25
	C24.1,43.3,23.3,42.6,23.3,41.7z M0,13.3c0-3.7,3-6.7,6.7-6.7h46.7c3.7,0,6.7,3,6.7,6.7v33.3c0,3.7-3,6.7-6.7,6.7H6.7
	c-3.7,0-6.7-3-6.7-6.7V13.3z M3.3,13.3v3.3h53.3v-3.3c0-1.8-1.5-3.3-3.3-3.3H6.7C4.8,10,3.3,11.5,3.3,13.3z M3.3,26.7h53.3V20H3.3
	V26.7z M3.3,30v16.7c0,1.8,1.5,3.3,3.3,3.3h46.7c1.8,0,3.3-1.5,3.3-3.3V30H3.3z"/>
</svg>
