<?xml version="1.0" encoding="utf-8"?>
<!-- Generator: Adobe Illustrator 25.2.3, SVG Export Plug-In . SVG Version: 6.00 Build 0)  -->
<svg version="1.1" id="Layer_1" xmlns="http://www.w3.org/2000/svg" xmlns:xlink="http://www.w3.org/1999/xlink" x="0px" y="0px"
	 viewBox="0 0 60 60" style="enable-background:new 0 0 60 60;" xml:space="preserve">
<style type="text/css">
	.st0{fill:#E34731;}
</style>
<path class="st0" d="M52.5,0.2h-45C3.4,0.2,0,3.6,0,7.6v33.6c0,4.1,3.4,7.4,7.5,7.4h11.2v9.7c0,1.2,1.3,1.8,2.2,1.1l14.6-11h16.9
	c4.1,0,7.5-3.4,7.5-7.4V7.6C60,3.6,56.7,0.2,52.5,0.2z M56.4,41.5c0,2.1-1.7,3.7-3.7,3.7H35.7c-0.8,0-1.6,0.3-2.3,0.8l-10.9,8.2v-7
	c0-1-0.8-1.9-1.9-1.9H7.6c-2.1,0-3.7-1.7-3.7-3.7V7.7C3.9,5.6,5.5,4,7.6,4h45c2.1,0,3.7,1.7,3.7,3.7V41.5z M32,28.3H17
	c-1,0-1.9,0.8-1.9,1.9c-0.1,1,0.8,1.9,1.9,1.9h15c1,0,1.8-0.8,1.8-1.9C33.7,29.2,33,28.3,32,28.3z M43.2,17.1H17
	c-1,0-1.9,0.8-1.9,1.9c-0.1,1,0.8,1.9,1.9,1.9h26.2c1,0,1.8-0.8,1.8-1.9C45,17.9,44.3,17.1,43.2,17.1z"/>
</svg>
