<?xml version="1.0" encoding="utf-8"?>
<!-- Generator: Adobe Illustrator 22.0.0, SVG Export Plug-In . SVG Version: 6.00 Build 0)  -->
<svg version="1.1" id="Layer_1" xmlns="http://www.w3.org/2000/svg" xmlns:xlink="http://www.w3.org/1999/xlink" x="0px" y="0px"
	 viewBox="0 0 60 31.2" style="enable-background:new 0 0 60 31.2;" xml:space="preserve">
<style type="text/css">
	.st0{fill:#FACF38;}
	.st1{fill:#50D4F1;}
	.st2{fill:none;stroke:#000000;stroke-width:0.75;stroke-linecap:round;stroke-linejoin:round;stroke-miterlimit:10;}
</style>
<path class="st0" d="M7.1,20h6.6l0,0l-1.6,2.5L7,31.2H0L7.1,20z"/>
<path class="st1" d="M53.3,0h6.6l0,0l-1.5,2.6l-5.2,8.7h-6.9L53.3,0z"/>
<path d="M36.9,5.5H15.8c-0.1,0-0.3,0.1-0.3,0.3s0.1,0.3,0.3,0.3h21.1c0.1,0,0.3-0.1,0.3-0.3S37,5.5,36.9,5.5z"/>
<path d="M36.9,8.8H15.8c-0.1,0-0.3,0.1-0.3,0.3s0.1,0.3,0.3,0.3h21.1c0.1,0,0.3-0.1,0.3-0.3S37,8.8,36.9,8.8z"/>
<path d="M36.9,12.1H15.8c-0.1,0-0.3,0.1-0.3,0.3s0.1,0.3,0.3,0.3h21.1c0.1,0,0.3-0.1,0.3-0.3S37,12.1,36.9,12.1z"/>
<path class="st2" d="M17.3,22v-3.8H17h-2.9c-0.9,0-1.6-0.7-1.6-1.6V2c0-0.9,0.7-1.6,1.6-1.6h24.3C39.3,0.4,40,1.1,40,2v2.9v11.7
	c0,0.9-0.7,1.6-1.6,1.6H22.5l-4.4,4.4"/>
<path class="st2" d="M44.4,6.5v14.6c0,0.9-0.7,1.6-1.6,1.6h-3.2v5.2l-5.2-5.2H18.6c-0.2,0-0.4,0-0.5-0.1l4.4-4.4h15.9
	c0.9,0,1.6-0.7,1.6-1.6V4.9h2.9C43.7,4.9,44.4,5.6,44.4,6.5z"/>
</svg>
