<?xml version="1.0" encoding="utf-8"?>
<!-- Generator: Adobe Illustrator 25.2.3, SVG Export Plug-In . SVG Version: 6.00 Build 0)  -->
<svg version="1.1" id="Layer_1" xmlns="http://www.w3.org/2000/svg" xmlns:xlink="http://www.w3.org/1999/xlink" x="0px" y="0px"
	 viewBox="0 0 60 60" style="enable-background:new 0 0 60 60;" xml:space="preserve">
<style type="text/css">
	.st0{fill:#E34731;}
</style>
<path class="st0" d="M30,36c5.4,0,9.7-4.4,9.7-9.8s-4.4-9.8-9.7-9.8c-5.4,0-9.7,4.4-9.7,9.8C20.2,31.6,24.6,36,30,36z M30,19.5
	c3.7,0,6.7,3,6.7,6.8S33.7,33,30,33s-6.8-3-6.8-6.8S26.3,19.5,30,19.5z M34.7,39h-9.4C18,39,12,44.6,12,51.5c0,1.4,1.2,2.5,2.7,2.5
	h30.7c1.5,0,2.7-1.1,2.7-2.5C48,44.6,42,39,34.7,39z M15,51c0.3-5,4.8-9,10.2-9h9.4c5.5,0,10,4,10.2,9H15z M48,21
	c4.1,0,7.5-3.4,7.5-7.5S52.1,6,48,6c-4.1,0-7.5,3.4-7.5,7.5S43.9,21,48,21z M48,9c2.5,0,4.5,2,4.5,4.5S50.5,18,48,18s-4.5-2-4.5-4.5
	S45.5,9,48,9z M12,21c4.1,0,7.5-3.4,7.5-7.5S16.1,6,12,6c-4.1,0-7.5,3.4-7.5,7.5S7.9,21,12,21z M12,9c2.5,0,4.5,2,4.5,4.5
	S14.5,18,12,18s-4.5-2-4.5-4.5S9.5,9,12,9z M52.6,24h-6.1c-1,0-2.1,0.2-3,0.7c-0.7,0.4-1.1,1.3-0.7,2c0.4,0.7,1.3,1.1,2,0.7
	c0.6-0.3,1.2-0.4,1.8-0.4h6.1c2.3,0,4.4,2.1,4.4,4.8V33c0,0.8,0.7,1.5,1.5,1.5S60,33.8,60,33v-1.2C60,27.5,56.7,24,52.6,24z
	 M15.3,27.4c0.7,0.4,1.6,0,2-0.7c0.4-0.7,0-1.6-0.7-2c-1-0.5-2-0.7-3-0.7H7.4C3.3,24,0,27.5,0,31.8V33c0,0.8,0.7,1.5,1.5,1.5
	S3,33.8,3,33v-1.2C3,29.1,5,27,7.4,27h6.1C14.1,27,14.7,27.1,15.3,27.4z"/>
</svg>
