<?xml version="1.0" encoding="utf-8"?>
<!-- Generator: Adobe Illustrator 25.2.3, SVG Export Plug-In . SVG Version: 6.00 Build 0)  -->
<svg version="1.1" id="Layer_1" xmlns="http://www.w3.org/2000/svg" xmlns:xlink="http://www.w3.org/1999/xlink" x="0px" y="0px"
	 viewBox="0 0 60 60" style="enable-background:new 0 0 60 60;" xml:space="preserve">
<style type="text/css">
	.st0{fill:#E34731;}
</style>
<path class="st0" d="M54,18H42c-3.3,0-6,2.7-6,6v24c0,3.3,2.7,6,6,6h12c3.3,0,6-2.7,6-6V24C60,20.7,57.3,18,54,18z M57,48
	c0,1.7-1.3,3-3,3H42c-1.7,0-3-1.3-3-3V24c0-1.7,1.3-3,3-3h12c1.7,0,3,1.3,3,3V48z M9,12c0-1.7,1.3-3,3-3h30c1.7,0,3,1.3,3,3v1.5
	c0,0.8,0.7,1.5,1.4,1.5s1.6-0.7,1.6-1.5V12c0-3.3-2.7-6-6-6H12c-3.3,0-6,2.7-6,6v21H1.5C0.7,33,0,33.7,0,34.5V36c0,3.3,2.7,6,6,6
	h25.5c0.8,0,1.5-0.7,1.5-1.5S32.3,39,31.5,39H6c-1.7,0-3-1.3-3-3h28.5c0.8,0,1.5-0.7,1.5-1.5S32.3,33,31.5,33H9V12z"/>
</svg>
