<?xml version="1.0" encoding="utf-8"?>
<!-- Generator: Adobe Illustrator 25.2.3, SVG Export Plug-In . SVG Version: 6.00 Build 0)  -->
<svg version="1.1" id="Layer_1" xmlns="http://www.w3.org/2000/svg" xmlns:xlink="http://www.w3.org/1999/xlink" x="0px" y="0px"
	 viewBox="0 0 60 60" style="enable-background:new 0 0 60 60;" xml:space="preserve">
<style type="text/css">
	.st0{fill:#E34731;}
</style>
<path class="st0" d="M58.5,42h-57C0.7,42,0,42.6,0,43.5V45c0,3.3,2.7,6,6,6h48c3.3,0,6-2.7,6-6v-1.5C60,42.7,59.3,42,58.5,42z
	 M54,48H6c-1.7,0-3-1.3-3-3h54C57,46.7,55.6,48,54,48z M7.5,39C8.3,39,9,38.4,9,37.5V15c0-1.7,1.3-3,3-3h36c1.7,0,3,1.3,3,3v22.5
	c0,0.8,0.7,1.5,1.5,1.5s1.5-0.7,1.5-1.5V15c0-3.3-2.7-6-6-6H12c-3.3,0-6,2.7-6,6v22.5C6,38.4,6.7,39,7.5,39z"/>
</svg>
