<?xml version="1.0" encoding="utf-8"?>
<!-- Generator: Adobe Illustrator 25.2.3, SVG Export Plug-In . SVG Version: 6.00 Build 0)  -->
<svg version="1.1" id="Layer_1" xmlns="http://www.w3.org/2000/svg" xmlns:xlink="http://www.w3.org/1999/xlink" x="0px" y="0px"
	 viewBox="0 0 60 60" style="enable-background:new 0 0 60 60;" xml:space="preserve">
<style type="text/css">
	.st0{fill:#E34731;}
</style>
<path class="st0" d="M51,8.7C45.4,3.1,37.9,0,30,0C13.6,0,0.3,13.3,0.3,29.7c0,5.2,1.4,10.4,4,14.9L0,60l15.8-4.1
	c4.3,2.4,9.2,3.6,14.2,3.6h0c16.4,0,30-13.3,30-29.7C60,21.8,56.6,14.3,51,8.7z M30,54.5c-4.4,0-8.8-1.2-12.6-3.4l-0.9-0.5l-9.3,2.5
	l2.5-9.1l-0.6-0.9c-2.5-3.9-3.8-8.5-3.8-13.2C5.3,16.1,16.4,5,30,5c6.6,0,12.8,2.6,17.5,7.2S55,23.1,55,29.7
	C55,43.4,43.6,54.5,30,54.5z M43.5,36c-0.7-0.4-4.4-2.2-5.1-2.4c-0.7-0.3-1.2-0.4-1.7,0.4c-0.5,0.8-1.9,2.4-2.4,2.9
	c-0.4,0.5-0.9,0.6-1.6,0.2c-4.4-2.2-7.2-3.9-10.1-8.8c-0.8-1.3,0.8-1.2,2.2-4.1c0.2-0.5,0.1-0.9-0.1-1.3c-0.2-0.4-1.7-4-2.3-5.5
	c-0.6-1.4-1.2-1.2-1.7-1.3c-0.4,0-0.9,0-1.4,0c-0.5,0-1.3,0.2-2,0.9c-0.7,0.8-2.6,2.5-2.6,6.2s2.7,7.2,3,7.7
	c0.4,0.5,5.2,8,12.7,11.2c4.7,2,6.6,2.2,8.9,1.9c1.4-0.2,4.4-1.8,5-3.5c0.6-1.7,0.6-3.2,0.4-3.5C44.8,36.5,44.3,36.3,43.5,36z"/>
</svg>
