<?xml version="1.0" encoding="utf-8"?>
<!-- Generator: Adobe Illustrator 25.2.3, SVG Export Plug-In . SVG Version: 6.00 Build 0)  -->
<svg version="1.1" id="Layer_1" xmlns="http://www.w3.org/2000/svg" xmlns:xlink="http://www.w3.org/1999/xlink" x="0px" y="0px"
	 viewBox="0 0 60 60" style="enable-background:new 0 0 60 60;" xml:space="preserve">
<style type="text/css">
	.st0{fill:#E34731;}
</style>
<path class="st0" d="M52.5,11.3H31.9L26.6,6c-1.4-1.4-3.3-2.2-5.3-2.2H7.5c-4.1,0-7.5,3.4-7.5,7.5v37.4c0,4.1,3.4,7.5,7.5,7.5h44.9
	c4.1,0,7.5-3.4,7.5-7.5V18.8C59.9,14.6,56.6,11.3,52.5,11.3z M56.2,48.7c0,2.1-1.7,3.7-3.7,3.7H7.5c-2.1,0-3.7-1.7-3.7-3.7V11.3
	c0-2.1,1.7-3.7,3.7-3.7h13.7c1,0,1.9,0.4,2.6,1.1l6.4,6.4h22.1c2.1,0,3.7,1.7,3.7,3.7V48.7z M37.3,38.4c1.3-1.8,2.1-4.1,2.1-6.5
	c0-6.2-5-11.2-11.2-11.2s-11.2,5-11.2,11.2s5,11.2,11.2,11.2c2.4,0,4.6-0.8,6.5-2.1l7.2,7.2c0.4,0.4,0.8,0.5,1.3,0.5s1-0.2,1.3-0.5
	c0.7-0.7,0.7-1.9,0-2.6L37.3,38.4z M28.1,39.4c-4.1,0-7.5-3.4-7.5-7.5s3.4-7.5,7.5-7.5s7.5,3.4,7.5,7.5S32.3,39.4,28.1,39.4z"/>
</svg>
